<svg width="47" height="47" viewBox="0 0 47 47" fill="none" xmlns="http://www.w3.org/2000/svg">
<mask id="mask0_42_83" style="mask-type:luminance" maskUnits="userSpaceOnUse" x="5" y="5" width="37" height="37">
<path d="M5.14062 5.14062H41.8594V41.8594H5.14062V5.14062Z" fill="white"/>
</mask>
<g mask="url(#mask0_42_83)">
<path d="M14.5039 31.5322H38.8036V24.8081L34.1874 22.1609L33.3911 21.8167L14.5039 21.9463V31.5322Z" fill="white"/>
<path d="M30.3985 30.6394C30.6245 29.865 30.5386 29.1547 30.1623 28.6269C29.818 28.1426 29.2362 27.8626 28.5375 27.8305L15.2899 27.6584C15.2038 27.6584 15.1292 27.6147 15.0857 27.5505C15.0422 27.4862 15.0317 27.4014 15.0536 27.3142C15.0971 27.1846 15.2256 27.0882 15.3657 27.0777L28.7313 26.9057C30.3148 26.8299 32.036 25.5493 32.6373 23.9796L33.4014 21.9889C33.4351 21.9071 33.4431 21.817 33.4244 21.7306C32.5638 17.8351 29.0869 14.9297 24.9331 14.9297C21.1006 14.9297 17.8534 17.4047 16.6898 20.839C15.9009 20.2536 14.923 19.9813 13.9451 20.0749C12.1045 20.2585 10.6174 21.7318 10.4476 23.5724C10.4031 24.03 10.4357 24.4919 10.544 24.9389C9.09605 24.9781 7.72074 25.5814 6.71132 26.6202C5.70191 27.659 5.13828 29.0511 5.14063 30.4995C5.14063 30.768 5.16358 31.0388 5.19461 31.3062C5.21756 31.4359 5.32423 31.5323 5.45274 31.5323H29.9028C29.9732 31.531 30.0413 31.5074 30.0974 31.4649C30.1535 31.4224 30.1947 31.3632 30.2149 31.2958L30.3985 30.6394Z" fill="white"/>
<path d="M34.6166 22.1266L34.2494 22.138C34.1633 22.138 34.0888 22.2022 34.0543 22.2872L33.538 24.0841C33.312 24.8586 33.3979 25.569 33.7743 26.0968C34.1185 26.5809 34.7003 26.8609 35.3991 26.893L38.2185 27.0653C38.3045 27.0653 38.3792 27.1088 38.4227 27.173C38.4662 27.2373 38.4767 27.3337 38.4548 27.4095C38.4113 27.5391 38.2828 27.6355 38.1427 27.6458L35.2052 27.818C33.6125 27.8936 31.9005 29.1742 31.2993 30.7439L31.0835 31.2925C31.04 31.4003 31.1157 31.5082 31.2328 31.5082H41.327C41.3854 31.509 41.4424 31.4903 41.4891 31.4552C41.5358 31.4201 41.5696 31.3705 41.5851 31.3142C41.7641 30.6777 41.8564 30.02 41.8594 29.3589C41.8539 27.4407 41.0887 25.6029 39.7313 24.2476C38.3739 22.8924 36.5348 22.1301 34.6166 22.1277" fill="white"/>
</g>
</svg>
