<svg width="49" height="40" viewBox="0 0 49 40" fill="none" xmlns="http://www.w3.org/2000/svg">
<path d="M34.9117 0C31.1907 0 28.1742 3.01656 28.1742 6.7375V9.49375L0.979149 29.89C-0.100382 30.7016 -0.322414 32.2328 0.489149 33.32C1.30071 34.4072 2.83196 34.6216 3.91915 33.81L9.79915 29.4H19.8518L23.4196 38.0592L23.4962 38.2277C23.9326 39.0469 24.9356 39.4144 25.816 39.0545C26.6965 38.6947 27.1406 37.73 26.8802 36.8342L26.819 36.6581L23.8254 29.3923H27.2018L30.7696 38.0592L30.8462 38.2277C31.2826 39.0469 32.2856 39.4144 33.166 39.0545C34.0465 38.6947 34.4906 37.73 34.2302 36.8342L34.169 36.6581L30.9534 28.8487C37.1166 27.1108 41.6492 21.4375 41.6492 14.7V9.1875L47.8124 7.64859C48.4709 7.48781 48.869 6.82172 48.7006 6.16328C48.157 3.98125 46.197 2.45 43.946 2.45H40.1102C38.8699 0.957031 37.0018 0 34.9117 0ZM34.9117 4.9C35.9299 4.9 36.7492 5.71922 36.7492 6.7375C36.7492 7.75578 35.9299 8.575 34.9117 8.575C33.8934 8.575 33.0742 7.75578 33.0742 6.7375C33.0742 5.71922 33.8934 4.9 34.9117 4.9Z" fill="white"/>
</svg>
