<svg width="45" height="45" viewBox="0 0 45 45" fill="none" xmlns="http://www.w3.org/2000/svg">
<path d="M39.8212 31.875L36.5737 37.5C36.2705 38.0251 35.8444 38.4688 35.332 38.793C34.8196 39.1173 34.2362 39.3125 33.6319 39.3619L33.3244 39.375H11.6737C11.205 39.3738 10.7575 39.2906 10.3312 39.1256L10.0219 38.9906L14.1281 31.875H39.8212ZM16.0819 6.26063L20.3344 13.6275L7.49062 35.8763L4.095 30C3.76586 29.4299 3.59259 28.7833 3.59259 28.125C3.59259 27.4667 3.76586 26.8201 4.095 26.25L14.9212 7.5C15.2137 6.99375 15.6131 6.57375 16.0819 6.26063ZM26.8294 5.625C27.4357 5.62469 28.0331 5.77141 28.5702 6.05258C29.1074 6.33375 29.5684 6.74098 29.9137 7.23938L30.075 7.5L40.9012 26.25C41.1806 26.7337 41.3437 27.2625 41.3887 27.8025L41.4037 28.125H33.0337L20.0437 5.625H26.8294ZM22.5 17.3775L28.7062 28.125H16.2937L22.5 17.3775Z" fill="white"/>
</svg>
