<svg width="44" height="44" viewBox="0 0 44 44" fill="none" xmlns="http://www.w3.org/2000/svg">
<path d="M10.5 12H34.3333C35.792 12 37.191 12.5795 38.2224 13.6109C39.2539 14.6424 39.8333 16.0413 39.8333 17.5V34C39.8333 35.4587 39.2539 36.8576 38.2224 37.8891C37.191 38.9205 35.792 39.5 34.3333 39.5H10.5C9.04131 39.5 7.64236 38.9205 6.61091 37.8891C5.57946 36.8576 5 35.4587 5 34V17.5C5 16.0413 5.57946 14.6424 6.61091 13.6109C7.64236 12.5795 9.04131 12 10.5 12ZM10.5 13.8333C9.58333 13.8333 8.77667 14.145 8.15333 14.695L22.4167 23.9167L36.68 14.695C36.0567 14.145 35.25 13.8333 34.3333 13.8333H10.5ZM22.4167 26.135L7.07167 16.18C6.925 16.5833 6.83333 17.0417 6.83333 17.5V34C6.83333 34.9725 7.21964 35.9051 7.90727 36.5927C8.59491 37.2804 9.52754 37.6667 10.5 37.6667H34.3333C35.3058 37.6667 36.2384 37.2804 36.9261 36.5927C37.6137 35.9051 38 34.9725 38 34V17.5C38 17.0417 37.9083 16.5833 37.7617 16.18L22.4167 26.135Z" fill="white"/>
</svg>
