<svg width="51" height="51" viewBox="0 0 51 51" fill="none" xmlns="http://www.w3.org/2000/svg">
<path d="M19.125 6.375H25.5V19.125H19.125C17.4342 19.125 15.8127 18.4534 14.6172 17.2578C13.4216 16.0623 12.75 14.4408 12.75 12.75C12.75 11.0592 13.4216 9.43774 14.6172 8.24219C15.8127 7.04665 17.4342 6.375 19.125 6.375Z" fill="#7D7D7D"/>
<path d="M31.875 19.125H25.5V6.375H31.875C33.5658 6.375 35.1873 7.04665 36.3828 8.24219C37.5783 9.43774 38.25 11.0592 38.25 12.75C38.25 14.4408 37.5783 16.0623 36.3828 17.2578C35.1873 18.4534 33.5658 19.125 31.875 19.125Z" fill="#E2E2E2"/>
<path d="M25.5 25.5C25.5 29.0208 28.3542 31.875 31.875 31.875C35.3958 31.875 38.25 29.0208 38.25 25.5C38.25 21.9792 35.3958 19.125 31.875 19.125C28.3542 19.125 25.5 21.9792 25.5 25.5Z" fill="white"/>
<path d="M19.125 19.125H25.5V31.875H19.125C17.4342 31.875 15.8127 31.2033 14.6172 30.0078C13.4216 28.8123 12.75 27.1908 12.75 25.5C12.75 23.8092 13.4216 22.1877 14.6172 20.9922C15.8127 19.7966 17.4342 19.125 19.125 19.125Z" fill="#474747"/>
<path d="M19.125 31.875H25.5V38.25C25.5 39.9408 24.8284 41.5623 23.6328 42.7578C22.4373 43.9533 20.8158 44.625 19.125 44.625C17.4342 44.625 15.8127 43.9533 14.6172 42.7578C13.4216 41.5623 12.75 39.9408 12.75 38.25C12.75 36.5592 13.4216 34.9377 14.6172 33.7422C15.8127 32.5467 17.4342 31.875 19.125 31.875Z" fill="#737373"/>
</svg>
