<svg width="47" height="47" viewBox="0 0 47 47" fill="none" xmlns="http://www.w3.org/2000/svg">
<path d="M14.045 39.8886C9.11718 37.0009 4.90847 30.0296 2.73325 23.9148C1.85953 21.2622 1.56027 18.4184 0.433927 15.8683C-0.744286 14.0162 0.63588 11.9914 2.66459 11.4027C3.56787 11.2293 5.15614 10.3773 3.23896 10.9863C1.52025 12.2473 1.35392 9.84161 3.11632 9.68923C4.31914 9.5295 4.76197 8.54479 4.35062 7.6584C3.0595 6.81644 7.48145 5.89104 5.25648 4.63471C2.9386 2.13416 8.49856 1.65268 7.12684 4.4927C6.79848 6.67654 11.0119 4.09246 10.0343 6.61421C11.0279 7.82529 13.7551 6.88988 13.6875 8.58895C15.1349 8.68846 15.6317 9.90623 16.9905 9.99987C18.3987 10.6357 20.9516 11.1369 21.4308 12.7238C20.0337 13.83 16.7985 10.439 16.6431 13.5008C17.2326 24.3011 17.7912 28.0249 23.0064 33.6828C26.5193 37.6576 31.3463 39.532 35.4214 40.1993C36.2991 39.5279 37.8489 37.0318 39.2181 38.0843C39.2832 39.267 36.5004 40.5566 39.0873 40.4259C40.6063 39.9677 41.6599 41.6007 42.9107 40.1276C44.0632 41.4928 47.7007 39.2555 46.8808 42.0458C45.772 42.7611 44.1548 42.3288 43.0443 43.313C41.2131 42.3984 39.7552 44.1313 37.7281 43.9121C29.9131 45.2799 19.7292 44.0461 14.045 39.8886ZM23.2303 43.2686C26.6373 43.7425 30.1556 44.4713 33.5748 43.8065C32.0273 43.1077 30.4275 44.0787 28.8858 43.3068C27.0368 43.7047 25.0527 43.2055 23.1729 42.9597C21.0353 42.0075 18.7285 41.3528 16.7268 40.117C14.2255 39.2033 18.0204 41.2886 18.6958 41.4575C20.2595 42.345 16.9765 41.0024 16.5135 40.6335C15.204 39.8988 15.0039 40.0701 16.3508 40.8162C18.4509 42.1172 21.0829 42.9993 23.2303 43.2686ZM13.4789 38.6238C15.3776 39.3271 13.4705 37.2885 12.6004 37.407C12.2149 36.7382 11.1276 36.3157 11.8946 35.9564C10.5149 36.4354 10.4493 34.135 9.8007 34.4636C8.34113 34.0028 9.23266 32.3701 7.49402 31.3674C7.33531 30.311 5.76659 29.3947 5.2663 27.8011C5.04525 26.9852 3.49398 24.6422 4.44692 26.8227C5.2584 28.9218 6.68603 30.7194 7.87406 32.5151C8.79662 34.2246 9.88588 36.0113 11.566 37.0778C12.1323 37.6211 12.6791 38.4535 13.4789 38.6238ZM15.9242 35.3151C14.8853 34.7613 12.6236 34.4747 14.2196 35.7416C15.2442 36.1556 17.8553 36.3565 15.9243 35.3151M17.6657 37.5168C19.8969 38.148 15.7893 36.1058 17.1151 37.2846L17.6657 37.5168ZM17.6845 36.3345C19.3054 36.5435 15.7558 35.232 17.3289 36.2171L17.6845 36.3345ZM23.3181 39.7984C24.8314 38.8937 24.3325 41.9171 25.8856 40.0538C27.4175 38.9352 24.5626 41.4367 26.4507 40.2533C27.8161 39.34 29.833 40.6862 31.107 41.1253C32.0233 41.0804 32.914 41.9177 33.8533 41.4083C35.6615 40.9213 30.3175 40.6859 31.7184 39.8219C30.0638 40.3034 28.8415 39.2478 28.0273 38.1881C26.1715 37.7595 24.0257 36.8107 23.0995 35.1684C22.7218 34.5517 23.645 35.2552 22.7736 34.2473C21.6553 33.2526 21.0969 32.1235 20.3461 30.9144C19.4493 30.436 19.3448 29.0278 19.2541 30.8672C19.2613 29.7064 18.1714 28.925 17.9054 29.2498C17.9006 28.1317 19.0717 28.6922 18.2519 27.8649C18.0754 26.7062 17.4944 25.4987 17.3198 24.1904C17.0484 23.5597 17.2816 22.209 16.3936 23.6367C16.0701 25.1455 16.2862 21.7825 16.7893 22.8915C17.4496 21.7599 16.5523 21.893 16.5155 22.0501C16.9456 21.0953 16.7878 19.741 16.4033 20.2576C16.6325 19.2457 16.7654 16.5334 16.0603 17.014C16.4877 15.9558 16.8709 12.1719 15.0155 13.6146C14.2635 13.6251 12.9614 13.8876 12.3459 14.1936C14.2758 15.2575 12.1517 14.5779 11.3661 14.4088C11.2637 15.3931 10.4856 14.9674 9.51346 14.977C11.0661 15.1691 8.75733 16.5651 7.86663 16.0228C6.70971 16.5757 8.86492 17.9559 7.88976 18.3826C8.00965 19.0259 6.11753 18.1503 6.26606 19.636C5.14301 19.1635 6.11147 21.3983 6.67336 20.6425C8.58347 21.1594 8.018 22.338 8.06665 23.4577C7.75546 24.1101 6.53007 21.9242 7.79374 22.0254C6.79683 20.406 6.69099 21.4401 5.86252 22.1924C5.66984 22.247 7.97568 23.2628 6.5286 23.7652C7.80173 23.9616 7.8379 25.0757 8.09713 25.7807C8.86226 26.5776 8.70574 24.9006 9.62123 25.8583C9.0419 25.0051 6.55237 23.4542 8.55676 23.9516C8.54602 23.0928 8.19416 22.4002 8.80828 22.417C9.41643 21.3158 8.17139 25.1324 9.5422 23.7328C9.92159 23.5671 10.0156 22.6301 10.6976 23.8213C11.6883 24.7958 11.0555 25.502 9.65804 24.6096C9.9081 25.4578 11.5274 25.7608 11.2232 27.0872C11.5458 28.2536 11.997 27.824 12.3905 27.7565C12.6991 28.8899 12.8743 28.0565 12.8889 27.5172C14.3021 27.8197 13.9711 28.655 14.4133 29.2386C15.387 29.6781 13.0196 26.2594 14.6913 28.2106C16.4501 29.7985 15.3605 30.3459 13.7725 30.207C15.0932 30.3152 15.121 31.4916 16.3432 31.5073C17.4055 32.0551 18.2428 34.1101 16.2786 33.2435C15.1711 32.5563 13.1981 31.8928 15.1671 33.0611C15.6332 33.3561 18.4301 34.4071 20.184 35.4641C21.1551 36.128 21.9816 37.3866 22.4574 37.5898C21.4024 38.0937 19.2781 37.1874 20.8555 36.9097C19.8715 36.7305 18.7991 36.2258 19.7073 37.4588C20.4883 38.1729 22.5464 38.057 22.9117 38.1328C22.602 38.8151 22.0706 38.8693 22.9244 38.9222C21.972 39.4299 23.2298 39.5084 23.3181 39.7984ZM21.2676 33.5449C20.6412 32.5572 20.791 33.6924 21.3704 34.2983C22.2966 35.3999 21.5888 33.6739 21.2676 33.5449ZM17.8094 28.4357C17.8094 28.4357 17.9638 27.3938 17.4875 27.2786C17.0111 27.1633 17.2736 27.3552 17.6547 28.18C17.7456 28.3767 17.8018 28.4449 17.8011 28.4404M12.5951 24.4865C12.1219 23.4267 12.8203 24.0022 12.7186 23.5502C12.5001 23.0958 10.377 20.6828 11.3441 22.5045C12.2193 24.6776 10.7935 22.2317 10.6448 21.4913C10.4804 21.9459 10.991 23.4352 11.2997 23.9427C12.0856 25.1531 11.7322 23.2799 12.5951 24.4865ZM8.24722 20.3076C7.01842 19.2739 8.62606 20.817 8.12706 20.7976C6.83208 19.8518 7.36147 20.5218 8.09291 21.2487C8.8853 22.4261 9.53935 20.5431 8.24722 20.3076ZM8.87814 20.4853C11.2026 21.1239 6.4043 18.2421 8.53069 20.1344L8.87814 20.4853ZM15.3109 23.2328C14.6437 23.2462 15.5876 21.7799 14.6931 22.0692C14.3792 19.7901 13.703 23.1225 14.6232 23.6742C14.9073 24.4906 15.2057 24.158 15.3109 23.2327M9.82282 19.9905C12.9179 21.419 7.58178 17.6277 8.94781 19.5125C9.1102 19.8757 9.49933 19.9059 9.82282 19.9905ZM10.1775 19.2501C12.5217 20.2191 9.96896 18.6195 9.15711 18.7932C9.36182 19.0927 9.917 18.9617 10.1775 19.2501ZM10.4915 18.3729C11.2525 18.2209 10.3905 17.9769 9.93573 17.6156C8.88328 16.0346 10.0922 17.7432 9.7615 18.2285C10.1995 18.6591 11.6884 19.4288 10.4915 18.3729ZM15.875 15.92C15.5643 17.5624 15.2473 16.8775 15.6928 15.6529C15.5862 14.0813 14.6311 16.6153 15.0532 17.3591C15.7511 18.4707 16.4489 14.6274 15.875 15.92ZM16.803 35.4742C18.0117 35.7844 18.0055 35.2862 16.9131 35.1383C16.3254 34.5916 14.4714 34.0118 16.1309 35.0703C16.2408 35.3487 16.5882 35.3423 16.803 35.4742ZM12.5114 32.6239C13.1773 33.1205 15.0195 34.0312 13.46 32.8129C13.9858 32.202 12.4536 31.8768 12.9619 31.4682C11.669 30.6771 11.942 30.7474 12.8477 30.7724C11.294 30.0779 13.0721 30.1298 12.9883 29.7739C12.3892 29.6556 10.0126 28.7175 11.4107 29.851C9.98934 29.1263 11.072 30.1209 10.6424 30.0158C9.18896 29.6195 11.9367 31.1228 10.4116 30.7496C11.2454 31.4104 12.6559 32.4422 10.7641 31.4488C10.5148 31.8077 12.1179 32.3516 12.5114 32.6238M27.6133 41.4803C28.2509 40.8625 27.6394 42.4644 28.6697 41.329C28.6808 40.5164 28.638 40.0364 27.4857 41.0235C27.1681 41.1998 27.0263 41.9488 27.6133 41.4803ZM17.1733 34.7773C17.8824 35.4073 20.4304 35.2396 18.0346 34.8549C17.6797 34.3303 15.7814 34.4564 17.1733 34.7773ZM5.49249 26.9312C4.46225 25.4614 4.85211 24.8006 3.85859 23.6006C3.67059 22.6828 2.15438 20.6002 3.07437 22.8065C3.91707 24.0969 4.16758 26.0949 5.49249 26.9312ZM36.0151 41.438C37.0175 41.2349 39.3015 41.9482 39.6706 41.1722C38.4534 41.1428 35.4596 40.3136 35.3178 41.3702L36.0151 41.438ZM1.88505 16.1107C1.70238 15.0636 1.48151 13.2255 3.22877 13.8466C0.896491 14.3096 4.84293 16.7455 4.34457 14.8223C5.32523 14.8703 6.26303 14.2427 5.74841 15.1952C7.68056 14.9818 9.02015 13.3062 10.8866 13.541C12.3404 13.3486 13.93 13.2028 15.4966 12.6175C16.7848 12.5247 18.0248 11.1378 17.3188 10.3158C15.5621 10.1672 13.7233 10.387 11.7818 10.773C9.63023 11.2202 7.67597 12.07 5.50515 12.4347C3.38924 12.7189 5.93082 13.2178 5.32468 13.329C4.22055 13.712 6.64141 13.9704 5.18148 14.3743C4.28003 14.2029 3.3415 13.8931 3.72659 12.943C1.69971 13.206 -0.0812373 14.0472 1.52007 16.1098L1.88505 16.1107ZM7.30208 13.8559C9.06917 15.0639 6.99841 11.8726 6.52318 13.6234C6.74395 13.569 7.09104 13.6979 7.30208 13.8559ZM7.80512 13.0463C9.48023 13.2149 7.54846 11.9828 7.48659 12.7563L7.80512 13.0463ZM10.6125 12.0204C13.0851 11.5498 9.70706 11.2348 8.98269 12.1053C9.44168 12.3146 9.94977 11.5215 10.6125 12.0204ZM14.8536 11.1781C16.4167 10.938 15.0993 10.2205 14.642 11.4189C14.8078 11.7967 14.8875 11.3056 14.8536 11.1781ZM6.44543 17.5635C7.32888 17.5029 7.82761 16.589 6.2745 16.6415C3.8675 16.3923 8.39822 17.4657 5.96579 17.1587C5.6389 17.3752 6.42643 17.6233 6.44543 17.5635ZM5.20828 10.5851C6.78499 10.0487 8.77551 9.59311 9.66291 10.8867C8.99536 9.94497 9.3799 9.03958 10.0955 10.3728C11.1074 11.7219 11.4705 10.0263 10.9558 9.3068C11.4455 10.0813 13.2634 11.7677 11.4579 9.36573C12.6543 7.92663 9.06256 9.55419 8.24621 9.53776C7.85332 9.71401 4.1909 10.4717 5.20828 10.5851ZM6.13231 8.8155C7.03155 8.13676 9.24239 9.21922 7.82367 8.14098C7.68505 8.01843 4.71689 8.95861 6.13231 8.8155ZM9.41065 8.95081C10.463 8.97771 8.95662 7.53705 10.2108 8.18982C10.0048 7.51694 8.75063 7.391 8.13752 7.12222C7.79071 7.73735 8.84344 8.95907 9.41065 8.95081ZM5.54518 4.33802C4.35117 2.77903 7.79099 4.59991 6.57771 2.96777C5.55656 2.15463 4.57534 3.88298 5.54518 4.33802ZM20.8702 12.5924C21.418 11.6215 18.609 11.2836 20.5012 12.2483C20.6754 12.3065 20.636 12.6596 20.8702 12.5924Z" fill="white"/>
</svg>
