<svg width="45" height="45" viewBox="0 0 45 45" fill="none" xmlns="http://www.w3.org/2000/svg">
<path d="M28.125 39.375C28.125 39.375 28.125 35.1188 28.125 33.75C28.125 32.5688 28.4062 30.075 27.1875 29.0625C29.7937 28.8188 31.8375 27.975 33.75 26.25C35.6625 24.525 36.5625 21.9188 36.5625 17.8125C36.5625 15 36.0938 13.125 34.6875 11.25C35.2312 9.7875 35.325 7.5 34.6875 5.625C31.7625 5.625 29.1187 7.63125 28.125 8.4375C27.3938 8.25 25.6312 7.5 22.5 7.5C19.3688 7.5 17.6062 8.25 16.875 8.4375C15.8813 7.63125 13.2375 5.625 10.3125 5.625C9.675 7.5 9.76875 9.7875 10.3125 11.25C8.90625 13.125 8.4375 15 8.4375 17.8125C8.4375 21.9188 9.3375 24.525 11.25 26.25C13.1625 27.975 15.2063 28.8188 17.8125 29.0625C16.5938 30.075 16.875 32.5688 16.875 33.75C16.875 35.1188 16.875 39.375 16.875 39.375" stroke="white" stroke-width="2" stroke-linecap="round" stroke-linejoin="round"/>
<path d="M16.875 35.625C14.2387 35.625 11.5425 34.5694 9.96 33.3975C8.38125 32.2275 7.9125 30.2944 5.625 29.0625" stroke="white" stroke-width="2" stroke-linecap="round" stroke-linejoin="round"/>
</svg>
