<svg width="57" height="57" viewBox="0 0 57 57" fill="none" xmlns="http://www.w3.org/2000/svg">
<path d="M26.8803 29.7944H18.7863V25.2605H26.885V29.7967L26.8803 29.7944ZM34.979 0V14.25H49.229L34.979 0ZM38.2161 25.2605H30.1174V29.7967H38.2161V25.2605ZM38.2161 33.0339H30.1174V37.5701H38.2161V33.0339ZM49.2266 15.4375V53.1145C49.2266 55.2615 47.4881 57 45.3411 57H11.6589C11.1486 57 10.6434 56.8995 10.172 56.7042C9.70055 56.509 9.27222 56.2228 8.91141 55.862C8.18274 55.1333 7.77338 54.145 7.77338 53.1145V3.8855C7.77338 1.7385 9.51188 0 11.6589 0H33.7891V15.4375H49.2266ZM41.4533 22.0234H15.5444V40.8072H41.4556V22.021L41.4533 22.0234ZM26.8803 33.0339H18.7863V37.5701H26.885V33.0339H26.8803Z" fill="white"/>
</svg>
