<svg width="55" height="55" viewBox="0 0 55 55" fill="none" xmlns="http://www.w3.org/2000/svg">
<path d="M33.7494 13.75H47.4994L33.7494 0V13.75ZM33.7494 15.416H32.0833V0H11.2521C9.17813 0 7.50063 1.6775 7.50063 3.74917V51.2508C7.50063 53.3225 9.17813 55 11.2498 55H43.7502C45.8219 55 47.4994 53.3225 47.4994 51.2508V15.416H33.7494ZM18.1271 39.6871C17.8806 39.6869 17.6366 39.6382 17.4089 39.5438C17.1813 39.4493 16.9744 39.3109 16.8003 39.1365C16.6261 38.9622 16.488 38.7552 16.3938 38.5274C16.2996 38.2996 16.2512 38.0555 16.2514 37.8091C16.2515 37.5626 16.3002 37.3186 16.3947 37.0909C16.4891 36.8632 16.6275 36.6564 16.8019 36.4822C16.9763 36.3081 17.1833 36.1699 17.411 36.0758C17.6388 35.9816 17.8829 35.9332 18.1294 35.9333C18.6272 35.9333 19.1045 36.1311 19.4565 36.4831C19.8085 36.835 20.0063 37.3124 20.0063 37.8102C20.0063 38.308 19.8085 38.7854 19.4565 39.1374C19.1045 39.4893 18.6249 39.6871 18.1271 39.6871ZM18.1271 32.1865C17.8752 32.1951 17.6242 32.153 17.389 32.0625C17.1538 31.9721 16.9392 31.8352 16.7581 31.66C16.5769 31.4849 16.4329 31.275 16.3346 31.043C16.2362 30.811 16.1856 30.5615 16.1858 30.3095C16.1859 30.0576 16.2368 29.8082 16.3354 29.5763C16.4341 29.3444 16.5783 29.1347 16.7597 28.9598C16.9411 28.7848 17.1559 28.6482 17.3912 28.558C17.6265 28.4679 17.8775 28.426 18.1294 28.435C18.6155 28.452 19.076 28.6571 19.4139 29.007C19.7518 29.3569 19.9407 29.8243 19.9407 30.3107C19.9407 30.7972 19.7518 31.2646 19.4139 31.6145C19.076 31.9644 18.6132 32.1695 18.1271 32.1865ZM18.1271 24.6881C17.8806 24.688 17.6366 24.6393 17.4089 24.5448C17.1813 24.4504 16.9744 24.312 16.8003 24.1376C16.6261 23.9632 16.488 23.7562 16.3938 23.5284C16.2996 23.3007 16.2512 23.0566 16.2514 22.8101C16.2515 22.5636 16.3002 22.3196 16.3947 22.0919C16.4891 21.8643 16.6275 21.6575 16.8019 21.4833C16.9763 21.3091 17.1833 21.171 17.411 21.0768C17.6388 20.9826 17.8829 20.9342 18.1294 20.9344C18.6272 20.9344 19.1045 21.1321 19.4565 21.4841C19.8085 21.8361 20.0063 22.3135 20.0063 22.8113C20.0063 23.309 19.8085 23.7864 19.4565 24.1384C19.1045 24.4904 18.6249 24.6881 18.1271 24.6881ZM38.7521 39.3754H23.1275V36.2496H38.7521V39.3754ZM38.7521 31.8748H23.1275V28.749H38.7521V31.8748ZM38.7521 24.3742H23.1275V21.2506H38.7521V24.3742Z" fill="white"/>
</svg>
