<svg width="54" height="54" viewBox="0 0 54 54" fill="none" xmlns="http://www.w3.org/2000/svg">
<path d="M3.98251 43.7895V41.5395H50.0175V43.7895H3.98251ZM10.386 39.2895C9.34951 39.2895 8.48476 38.9422 7.79176 38.2477C7.09876 37.5532 6.75151 36.6885 6.75001 35.6535V13.6732C6.75001 12.6382 7.09726 11.7735 7.79176 11.079C8.48626 10.3845 9.35026 10.038 10.3838 10.0395H43.6163C44.6513 10.0395 45.5153 10.386 46.2083 11.079C46.9013 11.772 47.2485 12.6367 47.25 13.6732V35.6557C47.25 36.6907 46.9028 37.5547 46.2083 38.2477C45.5138 38.9407 44.649 39.288 43.614 39.2895H10.386ZM10.386 37.0395H43.6163C43.9613 37.0395 44.2785 36.8947 44.568 36.6052C44.8575 36.3157 45.0015 35.9985 45 35.6535V13.6732C45 13.3282 44.856 13.011 44.568 12.7215C44.2785 12.432 43.9605 12.2872 43.614 12.2872H10.386C10.0395 12.2872 9.72151 12.432 9.43201 12.7215C9.14401 13.0095 9.00001 13.3267 9.00001 13.6732V35.6557C9.00001 36.0007 9.14401 36.3172 9.43201 36.6052C9.72001 36.8932 10.0373 37.038 10.3838 37.0395" fill="white"/>
</svg>
