<svg width="40" height="40" viewBox="0 0 40 40" fill="none" xmlns="http://www.w3.org/2000/svg">
<path d="M33.1133 4.375H6.88672C5.5 4.375 4.375 5.5 4.375 6.88672V33.1133C4.375 34.5 5.5 35.625 6.88672 35.625H33.1133C34.5 35.625 35.625 34.5 35.625 33.1133V6.88672C35.625 5.5 34.5 4.375 33.1133 4.375ZM33.1133 33.125C15.6211 33.1211 6.875 33.1172 6.875 33.1133C6.87891 15.6211 6.88281 6.875 6.88672 6.875C24.3789 6.87891 33.125 6.88281 33.125 6.88672C33.1211 24.3789 33.1172 33.125 33.1133 33.125ZM9.00781 16.0898H13.6445V31.0039H9.00781V16.0898ZM11.3281 14.0508C12.8086 14.0508 14.0156 12.8477 14.0156 11.3633C14.0156 11.0104 13.9461 10.6609 13.8111 10.3348C13.676 10.0088 13.478 9.71249 13.2285 9.46293C12.9789 9.21337 12.6826 9.01541 12.3566 8.88035C12.0305 8.7453 11.6811 8.67578 11.3281 8.67578C10.9752 8.67578 10.6257 8.7453 10.2997 8.88035C9.9736 9.01541 9.67733 9.21337 9.42778 9.46293C9.17822 9.71249 8.98026 10.0088 8.8452 10.3348C8.71014 10.6609 8.64062 11.0104 8.64062 11.3633C8.63672 12.8477 9.83984 14.0508 11.3281 14.0508ZM21.1836 23.625C21.1836 21.6797 21.5547 19.7969 23.9648 19.7969C26.3398 19.7969 26.375 22.0195 26.375 23.75V31.0039H31.0078V22.8242C31.0078 18.8086 30.1406 15.7187 25.4492 15.7187C23.1953 15.7187 21.6836 16.957 21.0625 18.1289H21V16.0898H16.5508V31.0039H21.1836V23.625Z" fill="white"/>
</svg>
