<svg width="50" height="50" viewBox="0 0 50 50" fill="none" xmlns="http://www.w3.org/2000/svg">
<path d="M48.4233 35.8988C45.5933 28.7526 43.2439 21.4231 40.54 14.2296C39.3457 11.1669 38.177 8.07859 36.549 5.21297C35.9025 4.18416 35.2838 3.05291 34.2234 2.39461C33.956 2.22468 33.6543 2.15252 33.3562 2.15828C32.8598 2.16765 32.366 2.38972 31.9866 2.71004C30.5637 3.83728 29.7201 5.47703 28.7741 6.9867C27.1028 9.78923 25.3409 12.7238 22.5463 14.5449C21.2338 15.4712 19.5151 15.5717 18.2499 16.565C16.5194 17.8697 15.343 19.7203 13.9239 21.3245C13.6007 21.7108 13.1001 21.8645 12.6626 22.0735C8.4292 23.7998 4.19385 25.5224 0 27.3355C3.55146 30.0828 7.33545 32.5266 10.9578 35.1794C11.9512 34.9823 12.9483 34.5743 13.9731 34.7556C15.5972 35.2641 16.549 36.8211 17.294 38.244C18.8077 41.3461 19.9015 44.6217 21.1273 47.842C23.177 47.6962 25.0217 46.6398 26.6062 45.3981C29.657 42.9267 31.9807 39.734 34.5389 36.7856C35.7646 35.4967 37.0142 33.9614 38.855 33.6027C40.7153 33.1534 42.7079 33.8195 44.0875 35.1006C46.0229 36.8309 47.7375 38.8313 50 40.1557C49.6965 38.6579 48.9673 37.3138 48.4233 35.8987M16.7816 30.8633C14.9961 31.9196 13.1001 32.7887 11.2436 33.7111C8.33066 31.7599 5.49268 29.6926 2.63105 27.6705C6.48994 25.9796 10.4079 24.4088 14.3181 22.8321C16.1706 24.2787 18.0824 25.6524 19.935 27.099C19.0639 28.4904 18.0153 29.7833 16.7816 30.8633ZM20.7528 26.015C18.912 24.6315 17.0478 23.2854 15.2345 21.8664C16.3973 20.2818 17.6705 18.7506 19.1959 17.5011C20.205 16.8546 21.4387 16.6753 22.4872 16.0919C24.9744 14.8503 26.6713 12.5719 28.2913 10.3962C26.2141 15.7884 23.9969 21.2022 20.7528 26.015Z" fill="white"/>
</svg>
