<svg width="66" height="66" viewBox="0 0 66 66" fill="none" xmlns="http://www.w3.org/2000/svg">
<path fill-rule="evenodd" clip-rule="evenodd" d="M49.335 6.69351L49.8575 7.01526L55.3025 10.6453C55.9912 11.1048 56.5673 11.714 56.9878 12.4273C57.4082 13.1406 57.6622 13.9396 57.7308 14.7648L57.75 15.2213V49.7035C57.7499 51.0153 57.2809 52.2839 56.4277 53.2804C55.5745 54.2768 54.3932 54.9355 53.097 55.1375L52.6707 55.187L20.966 57.6263C20.1221 57.6911 19.2746 57.5604 18.4895 57.2441C17.7044 56.9279 17.0028 56.4347 16.4395 55.803L16.1452 55.4428L9.9 47.1158C8.95087 45.8499 8.38575 44.3378 8.272 42.7598L8.25 42.1658V13.5465C8.25009 12.2347 8.71907 10.9661 9.5723 9.96964C10.4255 8.97319 11.6068 8.31453 12.903 8.11251L13.3293 8.06301L44.6463 5.65401C46.2768 5.52842 47.9078 5.89023 49.3322 6.69351H49.335ZM52.25 19.47L22 21.7965V52.03L52.25 49.7035V19.47ZM44 23.375C44.7293 23.375 45.4288 23.6647 45.9445 24.1805C46.4603 24.6962 46.75 25.3957 46.75 26.125V45.375C46.75 46.1044 46.4603 46.8038 45.9445 47.3196C45.4288 47.8353 44.7293 48.125 44 48.125H42.625C42.1552 48.1251 41.6931 48.0049 41.283 47.7757C40.8728 47.5466 40.5282 47.2162 40.282 46.816L33 34.98V46.75C33 47.4794 32.7103 48.1788 32.1945 48.6946C31.6788 49.2103 30.9793 49.5 30.25 49.5C29.5207 49.5 28.8212 49.2103 28.3055 48.6946C27.7897 48.1788 27.5 47.4794 27.5 46.75V27.5C27.5 26.7707 27.7897 26.0712 28.3055 25.5555C28.8212 25.0397 29.5207 24.75 30.25 24.75H31.625C32.0948 24.7499 32.5569 24.8701 32.967 25.0993C33.3772 25.3284 33.7218 25.6588 33.968 26.059L41.25 37.8923V26.125C41.25 25.3957 41.5397 24.6962 42.0555 24.1805C42.5712 23.6647 43.2707 23.375 44 23.375ZM45.067 11.1375L17.1737 13.2825L20.3005 16.4093L50.545 14.0855L46.805 11.5913C46.2928 11.2497 45.6808 11.09 45.067 11.1375Z" fill="white"/>
</svg>
