<svg width="45" height="45" viewBox="0 0 45 45" fill="none" xmlns="http://www.w3.org/2000/svg">
<path d="M13.0646 7.12469C16.8624 -0.0304813 27.0363 -0.40595 31.3335 6.45057C34.6635 11.7636 32.5461 18.3583 27.6577 21.1975L24.4829 15.6986C26.4276 14.5692 27.2701 11.9457 25.9453 9.8319C24.2357 7.10422 20.1883 7.25354 18.6774 10.1001C17.5594 12.2064 18.4454 14.6309 20.2865 15.7014L17.1095 21.2042C12.4815 18.5135 10.2542 12.4194 13.0646 7.12469ZM14.7626 32.9124C14.7588 35.0462 13.0985 37.0343 10.7116 37.1224C7.49108 37.2412 5.34251 33.8131 6.85343 30.9665C8.02168 28.7657 10.7057 28.1787 12.6536 29.2859L15.8366 23.7727C10.939 20.9777 4.18015 22.453 1.24065 27.9912C-2.55728 35.1463 2.84351 43.7634 10.9386 43.4647C16.9273 43.2437 21.0965 38.2646 21.1218 32.9124H14.7626ZM39.7014 23.7969L36.5267 29.2957C38.4781 30.4222 39.3253 33.0508 37.9984 35.168C36.2888 37.8956 32.2413 37.7463 30.7305 34.8997C29.6106 32.7898 30.5015 30.3608 32.349 29.2932L29.1719 23.7903C24.5376 26.4782 22.3055 32.5769 25.1177 37.8752C28.9155 45.0303 39.0894 45.4058 43.3867 38.5493C46.7188 33.2328 44.5966 26.6331 39.7014 23.7969Z" fill="white"/>
</svg>
