<svg width="49" height="49" viewBox="0 0 49 49" fill="none" xmlns="http://www.w3.org/2000/svg">
<path d="M24.5 18.375C35.8986 18.375 42.875 22.3409 42.875 24.5C42.875 26.6591 35.8986 30.625 24.5 30.625C13.1014 30.625 6.125 26.6591 6.125 24.5C6.125 22.3409 13.1014 18.375 24.5 18.375ZM24.5 15.3125C12.6604 15.3125 3.0625 19.4254 3.0625 24.5C3.0625 29.5746 12.6604 33.6875 24.5 33.6875C36.3396 33.6875 45.9375 29.5746 45.9375 24.5C45.9375 19.4254 36.3396 15.3125 24.5 15.3125Z" fill="white"/>
<path d="M24.5 21.4375C23.8943 21.4375 23.3022 21.6171 22.7986 21.9536C22.2949 22.2901 21.9024 22.7684 21.6706 23.328C21.4388 23.8876 21.3782 24.5034 21.4963 25.0975C21.6145 25.6915 21.9062 26.2372 22.3345 26.6655C22.7628 27.0938 23.3085 27.3855 23.9025 27.5037C24.4966 27.6218 25.1124 27.5612 25.672 27.3294C26.2316 27.0976 26.7099 26.7051 27.0464 26.2014C27.3829 25.6978 27.5625 25.1057 27.5625 24.5C27.5625 23.6878 27.2398 22.9088 26.6655 22.3345C26.0912 21.7602 25.3122 21.4375 24.5 21.4375Z" fill="white"/>
<path d="M16.0138 8.43262C19.1023 8.43262 25.1048 13.2974 29.8042 21.4375C35.5036 31.3095 35.5571 39.3332 33.6875 40.4128C33.4718 40.5246 33.2304 40.5774 32.9877 40.5659C29.8992 40.5659 23.8952 35.7026 19.1957 27.5625C13.4964 17.6906 13.4428 9.6668 15.3125 8.58727C15.5286 8.47518 15.7706 8.42081 16.0138 8.43262ZM16.0123 5.37165C15.2319 5.35753 14.4618 5.5515 13.7812 5.93362C9.38656 8.4709 10.6238 18.8405 16.5436 29.0938C21.5722 37.8066 28.3649 43.6299 32.9892 43.6299C33.7694 43.6428 34.5389 43.4478 35.2187 43.0649C39.6134 40.5291 38.3762 30.1595 32.4564 19.9063C27.4277 11.1935 20.6351 5.37012 16.0107 5.37012L16.0123 5.37165Z" fill="white"/>
<path d="M32.9877 8.43263C33.2304 8.4211 33.4718 8.47393 33.6875 8.58576C35.5572 9.66682 35.5036 17.6906 29.8042 27.5625C25.1033 35.7027 19.1008 40.5674 16.0123 40.5674C15.7696 40.579 15.5282 40.5262 15.3125 40.4143C13.4428 39.3317 13.4964 31.308 19.1957 21.4375C23.8967 13.2974 29.8992 8.43263 32.9877 8.43263ZM32.9877 5.37013C28.3633 5.37013 21.5722 11.195 16.5421 19.9063C10.6253 30.1595 9.38656 40.5292 13.7812 43.0649C14.4615 43.4481 15.2316 43.6431 16.0123 43.6299C20.6367 43.6299 27.4277 37.8051 32.4579 29.0938C38.3747 18.8405 39.6134 8.47092 35.2187 5.93517C34.5385 5.55198 33.7684 5.35695 32.9877 5.37013Z" fill="white"/>
</svg>
