<svg width="40" height="40" viewBox="0 0 40 40" fill="none" xmlns="http://www.w3.org/2000/svg">
<path d="M20 11.25C20.8288 11.25 21.6237 10.9208 22.2097 10.3347C22.7958 9.74866 23.125 8.9538 23.125 8.125C23.125 7.2962 22.7958 6.50134 22.2097 5.91529C21.6237 5.32924 20.8288 5 20 5C19.1712 5 18.3763 5.32924 17.7903 5.91529C17.2042 6.50134 16.875 7.2962 16.875 8.125C16.875 8.9538 17.2042 9.74866 17.7903 10.3347C18.3763 10.9208 19.1712 11.25 20 11.25Z" fill="white"/>
<path d="M20 11.25C21.4925 11.25 22.825 12.205 23.3 13.6225L23.5175 14.2725C23.5459 14.3556 23.5539 14.4444 23.5409 14.5313C23.5279 14.6181 23.4943 14.7006 23.4429 14.7719C23.3915 14.8431 23.3238 14.901 23.2454 14.9407C23.1671 14.9804 23.0803 15.0007 22.9925 15H17.0175C16.93 14.9996 16.8439 14.9785 16.7661 14.9385C16.6884 14.8985 16.6211 14.8407 16.57 14.7698C16.5188 14.6989 16.4851 14.6168 16.4716 14.5304C16.4582 14.444 16.4653 14.3556 16.4925 14.2725L16.71 13.6225C16.9414 12.9307 17.3847 12.3293 17.977 11.9035C18.5693 11.4777 19.2805 11.2491 20.01 11.25H20ZM12.5 21.25C12.5 20.9185 12.6317 20.6005 12.8661 20.3661C13.1005 20.1317 13.4185 20 13.75 20H26.25C26.5815 20 26.8995 20.1317 27.1339 20.3661C27.3683 20.6005 27.5 20.9185 27.5 21.25C27.5 21.5815 27.3683 21.8995 27.1339 22.1339C26.8995 22.3683 26.5815 22.5 26.25 22.5H13.75C13.4185 22.5 13.1005 22.3683 12.8661 22.1339C12.6317 21.8995 12.5 21.5815 12.5 21.25ZM12.5 26.25C12.5 25.9185 12.6317 25.6005 12.8661 25.3661C13.1005 25.1317 13.4185 25 13.75 25H26.25C26.5815 25 26.8995 25.1317 27.1339 25.3661C27.3683 25.6005 27.5 25.9185 27.5 26.25C27.5 26.5815 27.3683 26.8995 27.1339 27.1339C26.8995 27.3683 26.5815 27.5 26.25 27.5H13.75C13.4185 27.5 13.1005 27.3683 12.8661 27.1339C12.6317 26.8995 12.5 26.5815 12.5 26.25ZM13.75 30C13.4185 30 13.1005 30.1317 12.8661 30.3661C12.6317 30.6005 12.5 30.9185 12.5 31.25C12.5 31.5815 12.6317 31.8995 12.8661 32.1339C13.1005 32.3683 13.4185 32.5 13.75 32.5H18.75C19.0815 32.5 19.3995 32.3683 19.6339 32.1339C19.8683 31.8995 20 31.5815 20 31.25C20 30.9185 19.8683 30.6005 19.6339 30.3661C19.3995 30.1317 19.0815 30 18.75 30H13.75Z" fill="white"/>
<path fill-rule="evenodd" clip-rule="evenodd" d="M5.82495 4.10007C5.00745 5.70507 5.00745 7.80007 5.00745 12.0001V28.0001C5.00745 32.2001 5.00745 34.3001 5.82495 35.9001C6.54654 37.3079 7.69213 38.4535 9.09995 39.1751C10.7049 39.9926 12.7999 39.9926 16.9999 39.9926H22.9999C27.1999 39.9926 29.2999 39.9926 30.8999 39.1751C32.3098 38.4563 33.4561 37.3099 34.1749 35.9001C34.9924 34.2951 34.9924 32.2001 34.9924 28.0001V12.0001C34.9924 7.80007 34.9924 5.70007 34.1749 4.10007C33.4561 2.69023 32.3098 1.54388 30.8999 0.825068C29.2949 0.00756843 27.1999 0.00756836 22.9999 0.00756836H16.9999C12.7999 0.00756836 10.6999 0.00756843 9.09995 0.825068C7.69213 1.54666 6.54654 2.69225 5.82495 4.10007ZM22.9999 2.50507H16.9999C14.8574 2.50507 13.3999 2.50507 12.2749 2.60007C11.1799 2.68757 10.6174 2.85007 10.2274 3.05007C9.28668 3.52943 8.52181 4.2943 8.04245 5.23507C7.84245 5.62507 7.67995 6.18507 7.59245 7.28257C7.49995 8.40757 7.49745 9.85757 7.49745 12.0076V28.0076C7.49745 30.1501 7.49995 31.6076 7.59245 32.7326C7.68245 33.8276 7.84495 34.3901 8.04245 34.7801C8.52245 35.7201 9.28745 36.4851 10.2274 36.9651C10.6174 37.1651 11.1799 37.3276 12.2749 37.4151C13.3999 37.5051 14.8499 37.5076 16.9999 37.5076H22.9999C25.1424 37.5076 26.5999 37.5076 27.7249 37.4151C28.8199 37.3251 29.3824 37.1626 29.7724 36.9651C30.7124 36.4851 31.4774 35.7201 31.9574 34.7801C32.1574 34.3901 32.3199 33.8276 32.4074 32.7301C32.4999 31.6051 32.5024 30.1551 32.5024 28.0051V12.0051C32.5024 9.86507 32.4999 8.40507 32.4074 7.28007C32.3174 6.18757 32.1549 5.62507 31.9574 5.23507C31.4781 4.2943 30.7132 3.52943 29.7724 3.05007C29.3824 2.85007 28.8199 2.68757 27.7249 2.60007C26.5999 2.50757 25.1499 2.50507 22.9999 2.50507Z" fill="white"/>
</svg>
