<svg width="52" height="52" viewBox="0 0 52 52" fill="none" xmlns="http://www.w3.org/2000/svg">
<path d="M34.6667 28.1667L28.1667 34.6667M34.6667 15.1667L15.1667 34.6667M5.41669 26.0001C5.41669 16.2977 5.41669 11.4444 8.43052 8.43058C11.4444 5.41675 16.2955 5.41675 26 5.41675C35.7024 5.41675 40.5557 5.41675 43.5695 8.43058C46.5834 11.4444 46.5834 16.2956 46.5834 26.0001C46.5834 35.7024 46.5834 40.5557 43.5695 43.5696C40.5557 46.5834 35.7045 46.5834 26 46.5834C16.2977 46.5834 11.4444 46.5834 8.43052 43.5696C5.41669 40.5557 5.41669 35.7046 5.41669 26.0001Z" stroke="white" stroke-width="1.5" stroke-linecap="round" stroke-linejoin="round"/>
</svg>
