<svg width="50" height="50" viewBox="0 0 50 50" fill="none" xmlns="http://www.w3.org/2000/svg">
<path d="M24.874 0.0328706C22.7821 0.0386283 20.6991 0.30367 18.6724 0.821933C8.92242 3.24693 1.18336 12.0766 0.191169 22.0922C-1.03852 31.5657 3.75523 41.4376 11.949 46.3282C19.999 51.3657 30.8943 51.1641 38.7724 45.8657C45.8537 41.2672 50.2552 32.8922 49.9959 24.436C49.8755 16.0719 45.1787 7.94068 37.9912 3.64381C34.0771 1.22662 29.4724 0.0141206 24.874 0.0313081V0.0328706ZM24.7349 3.56412C35.0365 3.54693 45.1287 11.5141 46.1615 22.1594C48.1318 33.9516 38.3412 45.9391 26.3943 46.2891C15.0334 47.4204 4.04586 37.7844 3.72086 26.3751C2.87554 17.1391 8.97086 7.96725 17.6771 4.91412C19.9218 4.01993 22.3171 3.56432 24.7334 3.57193L24.7349 3.56412ZM35.3474 10.2876C29.7474 14.6313 24.3849 19.2626 18.9084 23.7391C21.4146 23.7704 23.938 23.7704 26.4521 23.7532C29.3896 19.2454 32.4099 14.7969 35.3474 10.2876ZM23.5474 26.2297C20.6099 30.7469 17.5834 35.2047 14.6427 39.7219C20.2599 35.3844 25.5974 30.7219 31.1068 26.2704C28.5866 26.2418 26.0662 26.2287 23.5459 26.2313L23.5474 26.2297Z" fill="white"/>
</svg>
