<svg width="45" height="45" viewBox="0 0 45 45" fill="none" xmlns="http://www.w3.org/2000/svg">
<path d="M37.875 18.9375C37.875 19.35 37.5375 19.6894 37.125 19.6687C34.9211 19.5583 32.7687 18.9629 30.8213 17.925C30.2944 17.6437 29.625 18.0094 29.625 18.6075V29.0625C29.6249 31.2556 28.9838 33.4008 27.7805 35.2343C26.5773 37.0678 24.8644 38.5096 22.8525 39.3824C20.8406 40.2553 18.6175 40.521 16.4565 40.1471C14.2956 39.7731 12.2911 38.7757 10.6896 37.2775C9.08801 35.7793 7.95928 33.8456 7.44219 31.7144C6.9251 29.5832 7.0422 27.3473 7.77909 25.2817C8.51598 23.2162 9.84052 21.4111 11.5898 20.0884C13.3391 18.7657 15.4368 17.9831 17.625 17.8369C17.7228 17.8317 17.8206 17.8467 17.9123 17.8811C18.004 17.9154 18.0877 17.9682 18.1581 18.0363C18.2284 18.1044 18.284 18.1863 18.3214 18.2768C18.3587 18.3673 18.3769 18.4646 18.375 18.5625V23.8125C18.375 24.225 18.0375 24.5569 17.6288 24.6244C16.7825 24.7667 15.9946 25.148 15.358 25.7233C14.7213 26.2986 14.2624 27.0439 14.0354 27.8714C13.8083 28.699 13.8226 29.5741 14.0766 30.3938C14.3305 31.2135 14.8135 31.9434 15.4686 32.4976C16.1238 33.0518 16.9237 33.4072 17.7741 33.5218C18.6245 33.6363 19.49 33.5054 20.2684 33.1443C21.0468 32.7833 21.7058 32.2072 22.1677 31.484C22.6295 30.7608 22.8749 29.9206 22.875 29.0625V5.4375C22.875 5.23859 22.954 5.04782 23.0947 4.90717C23.2353 4.76652 23.4261 4.6875 23.625 4.6875H28.875C29.0755 4.69261 29.2669 4.77229 29.4119 4.91098C29.5568 5.04966 29.6448 5.23739 29.6588 5.4375C29.8341 7.35886 30.6773 9.15799 32.0417 10.5221C33.4061 11.8861 35.2055 12.7289 37.1269 12.9037C37.5394 12.9412 37.8769 13.2731 37.8769 13.6875L37.875 18.9375Z" stroke="white" stroke-width="1.5" stroke-linecap="round" stroke-linejoin="round"/>
</svg>
