<svg width="36" height="36" viewBox="0 0 36 36" fill="none" xmlns="http://www.w3.org/2000/svg">
<path d="M11.9173 15.7445C11.9173 16.0868 11.9543 16.3643 12.0189 16.5679C12.1011 16.7969 12.2 17.0196 12.3151 17.234C12.3614 17.308 12.3798 17.382 12.3798 17.4468C12.3798 17.5393 12.3242 17.6318 12.204 17.7242L11.6211 18.1129C11.5379 18.1683 11.4546 18.1962 11.3806 18.1962C11.2881 18.1962 11.1956 18.1499 11.1031 18.0667C10.9784 17.9327 10.8669 17.7871 10.7701 17.6318C10.6666 17.4541 10.5709 17.2719 10.4832 17.0859C9.76158 17.9372 8.85493 18.3628 7.76321 18.3627C6.98611 18.3627 6.36624 18.1406 5.91286 17.6965C5.45963 17.2524 5.2283 16.6604 5.2283 15.9203C5.2283 15.1338 5.5059 14.4955 6.07022 14.0144C6.63455 13.5333 7.38394 13.2927 8.33682 13.2927C8.6514 13.2927 8.97526 13.3206 9.31754 13.3668C9.65982 13.4131 10.0114 13.4871 10.3815 13.5703V12.8949C10.3815 12.1918 10.2334 11.7014 9.94669 11.4147C9.65054 11.1278 9.15104 10.9891 8.43863 10.9891C8.11477 10.9891 7.78177 11.0261 7.43949 11.1094C7.09721 11.1926 6.76407 11.2944 6.44021 11.424C6.33501 11.471 6.22688 11.5111 6.11649 11.5442C6.0518 11.5628 6.0054 11.572 5.96841 11.572C5.83904 11.572 5.77407 11.4795 5.77407 11.2852V10.8318C5.77407 10.6838 5.79263 10.5727 5.8389 10.5081C5.88516 10.4434 5.96841 10.3785 6.09793 10.3137C6.42174 10.1472 6.81033 10.0085 7.26371 9.89747C7.71694 9.77709 8.19802 9.72169 8.70694 9.72169C9.8079 9.72169 10.6127 9.97144 11.1309 10.4709C11.6397 10.9706 11.8987 11.7292 11.8987 12.747V15.7445H11.9173ZM8.16118 17.1508C8.46633 17.1508 8.78091 17.0952 9.11405 16.9841C9.44705 16.8732 9.74307 16.6695 9.99296 16.3921C10.1409 16.2163 10.252 16.022 10.3074 15.7999C10.3628 15.5779 10.3999 15.3096 10.3999 14.9951V14.6064C10.1194 14.5382 9.83526 14.4857 9.54886 14.4492C9.26037 14.4127 8.96989 14.3942 8.6791 14.3937C8.05922 14.3937 7.60599 14.514 7.30069 14.7638C6.9954 15.0135 6.84732 15.3651 6.84732 15.8278C6.84732 16.2626 6.95841 16.5863 7.1896 16.8083C7.41179 17.0397 7.73565 17.1508 8.16118 17.1508ZM15.59 18.1499C15.4235 18.1499 15.3124 18.1221 15.2384 18.0574C15.1644 18.0018 15.0996 17.8723 15.0442 17.6965L12.8701 10.545C12.8145 10.36 12.7868 10.2398 12.7868 10.1749C12.7868 10.027 12.8607 9.94359 13.0088 9.94359H13.9154C14.0912 9.94359 14.2116 9.97144 14.2763 10.0361C14.3502 10.0917 14.4058 10.2212 14.4613 10.397L16.0155 16.5216L17.4589 10.397C17.5051 10.2119 17.5606 10.0918 17.6347 10.0361C17.7086 9.98072 17.8381 9.94373 18.0046 9.94373H18.7448C18.9205 9.94373 19.0409 9.97144 19.1149 10.0361C19.1888 10.0917 19.2537 10.2212 19.2907 10.397L20.7525 16.5956L22.3529 10.397C22.4085 10.2119 22.4733 10.0918 22.538 10.0361C22.6119 9.98072 22.7323 9.94373 22.8988 9.94373H23.7592C23.9072 9.94373 23.9905 10.0177 23.9905 10.1749C23.9905 10.2213 23.9812 10.2675 23.9719 10.323C23.9628 10.3785 23.9442 10.4524 23.9072 10.5543L21.6776 17.7058C21.622 17.8909 21.5573 18.0112 21.4833 18.0667C21.4093 18.1221 21.2889 18.1592 21.1317 18.1592H20.3361C20.1603 18.1592 20.0401 18.1313 19.9661 18.0667C19.892 18.0018 19.8273 17.8816 19.7903 17.6965L18.3562 11.7292L16.9315 17.6873C16.8853 17.8723 16.8297 17.9925 16.7558 18.0574C16.6816 18.1221 16.5521 18.1499 16.3856 18.1499H15.59ZM27.4784 18.3997C26.9973 18.3997 26.5163 18.3441 26.0536 18.2332C25.5911 18.1221 25.2302 18.0018 24.9896 17.863C24.8417 17.7798 24.7399 17.6872 24.7029 17.604C24.6669 17.5224 24.648 17.4342 24.6474 17.345V16.8732C24.6474 16.6788 24.7213 16.5863 24.8601 16.5863C24.9157 16.5863 24.9712 16.5956 25.0266 16.6141C25.0822 16.6326 25.1654 16.6695 25.2579 16.7067C25.5847 16.8504 25.9259 16.9589 26.2756 17.0304C26.638 17.104 27.0068 17.1412 27.3766 17.1415C27.9595 17.1415 28.4127 17.0397 28.7273 16.8362C29.0419 16.6326 29.2084 16.3365 29.2084 15.9573C29.2084 15.6982 29.1251 15.4853 28.9586 15.3096C28.7921 15.1338 28.4776 14.9766 28.0242 14.8285L26.6828 14.4122C26.0073 14.1995 25.5077 13.8849 25.2024 13.4686C24.8971 13.0615 24.7399 12.608 24.7399 12.1271C24.7399 11.7386 24.8231 11.3962 24.9896 11.1001C25.1561 10.8041 25.3782 10.545 25.6558 10.3416C25.9334 10.1287 26.2479 9.97144 26.6179 9.86034C26.9881 9.74925 27.3766 9.70312 27.7837 9.70312C27.9872 9.70312 28.2 9.71241 28.4036 9.74011C28.6163 9.76781 28.8106 9.8048 29.0049 9.84192C29.19 9.88819 29.3657 9.93445 29.5322 9.99C29.6987 10.0454 29.8283 10.1009 29.9208 10.1565C30.0503 10.2305 30.1428 10.3044 30.1984 10.3877C30.2539 10.4617 30.2816 10.5636 30.2816 10.6931V11.1279C30.2816 11.3221 30.2077 11.424 30.0689 11.424C29.9948 11.424 29.8745 11.387 29.7173 11.3129C29.19 11.0724 28.5978 10.9522 27.9409 10.9522C27.4136 10.9522 26.9973 11.0354 26.7105 11.2112C26.4236 11.387 26.2756 11.6553 26.2756 12.0345C26.2756 12.2936 26.3682 12.5156 26.5532 12.6914C26.7383 12.8672 27.0806 13.043 27.5709 13.2002L28.8847 13.6164C29.5507 13.8293 30.0319 14.1254 30.3186 14.5048C30.6053 14.8842 30.7441 15.3188 30.7441 15.7999C30.7441 16.1978 30.6609 16.5586 30.5037 16.8732C30.3372 17.1877 30.1151 17.4652 29.8283 17.6873C29.5415 17.9186 29.1991 18.0851 28.8014 18.2055C28.385 18.335 27.9502 18.3997 27.4784 18.3997Z" fill="white"/>
<path fill-rule="evenodd" clip-rule="evenodd" d="M29.2271 22.896C26.1833 25.1441 21.761 26.3376 17.9585 26.3376C12.6297 26.3376 7.8279 24.3669 4.20132 21.0919C3.91444 20.8329 4.17362 20.4813 4.5159 20.6848C8.43863 22.9607 13.2773 24.3392 18.2824 24.3392C21.6592 24.3392 25.3692 23.6361 28.783 22.1928C29.2918 21.9615 29.7266 22.5258 29.2271 22.896Z" fill="#747474"/>
<path fill-rule="evenodd" clip-rule="evenodd" d="M30.4945 21.4527C30.106 20.9531 27.9226 21.2121 26.9326 21.3323C26.6366 21.3695 26.5904 21.1103 26.8587 20.9161C28.5979 19.6949 31.4567 20.0465 31.7898 20.4534C32.1228 20.8698 31.6973 23.7286 30.069 25.0979C29.8191 25.3106 29.5786 25.1995 29.6896 24.9221C30.0597 24.0062 30.8831 21.9429 30.4945 21.4527Z" fill="#747474"/>
</svg>
