<svg width="50" height="50" viewBox="0 0 50 50" fill="none" xmlns="http://www.w3.org/2000/svg">
<path d="M26.0698 27.5312C26.1589 25.8625 26.9807 24.389 28.2089 23.3484C29.5057 22.2748 31.1394 21.6928 32.8229 21.7047C34.5901 21.7047 36.2167 22.3312 37.4292 23.3484C38.6589 24.3906 39.4714 25.8625 39.5682 27.5312C39.6573 29.239 38.9745 30.8359 37.762 32.014C36.4327 33.2835 34.6609 33.9847 32.8229 33.9687C30.9796 33.9859 29.202 33.2848 27.8667 32.014C26.662 30.8344 25.9714 29.239 26.0682 27.5312H26.0698ZM15.3198 30.9C15.3261 31.5515 15.5386 32.8203 15.8464 33.8125C16.5209 35.9445 17.6542 37.9029 19.1667 39.55C20.7866 41.3328 22.7632 42.7552 24.9682 43.725C27.3718 44.7795 29.9701 45.3177 32.5948 45.3047C35.2206 45.3106 37.8183 44.765 40.2198 43.7031C42.423 42.7223 44.3985 41.2948 46.0214 39.5109C47.5291 37.8551 48.6593 35.8916 49.3339 33.7562C49.9831 31.6869 50.1609 29.4985 49.8542 27.3515C49.5632 25.2955 48.8417 23.3239 47.737 21.5656C46.7195 19.9249 45.4123 18.4827 43.8792 17.3094L28.2229 5.27967C27.1979 4.4906 25.4729 4.49842 24.3495 5.27967C23.2104 6.0781 23.0792 7.39685 24.087 8.23435L30.5995 13.5328L10.7182 13.5578C9.07293 13.5578 7.50418 14.6312 7.18543 16C6.86824 17.3828 7.97449 18.5312 9.68387 18.5375L19.7511 18.5234L1.71824 32.3562C0.0260524 33.65 -0.51926 35.814 0.547927 37.175C1.62918 38.5672 3.93386 38.5672 5.64949 37.1828L15.4479 29.1656C15.4479 29.1656 15.3026 30.2484 15.3182 30.8984L15.3198 30.9ZM40.5042 34.5203C38.4792 36.5812 35.6542 37.7515 32.5964 37.7515C29.5354 37.7594 26.7026 36.6031 24.6854 34.5531C23.7301 33.5935 22.9939 32.4384 22.5276 31.1672C22.0996 29.9732 21.9307 28.7018 22.032 27.4375C22.1332 26.1732 22.5025 24.9449 23.1151 23.8344C23.7257 22.738 24.5404 21.7685 25.5151 20.9781C27.4776 19.3844 29.9761 18.5219 32.5964 18.514C35.2073 18.514 37.7073 19.3687 39.6667 20.9625C40.6436 21.7482 41.4586 22.7161 42.0667 23.8125C42.6776 24.9015 43.0526 26.114 43.1589 27.3687C43.2717 28.6456 43.1026 29.9316 42.6636 31.1359C42.1929 32.405 41.4573 33.5592 40.5057 34.5219L40.5042 34.5203Z" fill="white"/>
</svg>
