<svg width="58" height="58" viewBox="0 0 58 58" fill="none" xmlns="http://www.w3.org/2000/svg">
<path d="M52.8501 31.8347C52.7776 31.8347 52.7051 31.8831 52.6567 32.0039C52.171 33.408 51.4919 34.2562 50.9361 34.2562C50.6219 34.2562 50.5011 33.8937 50.5011 33.3621C50.5011 31.9797 51.3227 29.0483 51.7336 27.6926C51.7819 27.5234 51.8061 27.3784 51.8061 27.2576C51.8061 26.8685 51.5886 26.6727 51.0569 26.6727C50.5011 26.6727 49.8703 26.8902 49.2879 27.9342C49.0946 27.0135 48.4662 26.6244 47.5914 26.6244C46.6006 26.6244 45.6291 27.2793 44.8316 28.3209C44.0316 29.3625 43.0867 29.7032 42.3835 29.5316C42.891 28.2991 43.0843 27.3518 43.0843 26.6727C43.0843 25.5852 42.5526 24.9303 41.6826 24.9303C40.3728 24.9303 39.6212 26.1894 39.6212 27.4968C39.6212 28.5142 40.0804 29.5558 41.1002 30.0657C40.252 31.9797 39.0171 33.7246 38.5313 33.7246C37.9271 33.7246 37.7338 30.7448 37.7821 28.6109C37.8063 27.4026 37.903 27.3301 37.903 26.9651C37.903 26.7476 37.758 26.6026 37.1997 26.6026C35.9141 26.6026 35.5032 27.6901 35.4549 28.9516C35.4307 29.435 35.3582 29.8941 35.2374 30.3557C34.7057 32.2697 33.5892 33.7487 32.8618 33.7487C32.5235 33.7487 32.4268 33.4104 32.4268 32.973C32.4268 31.5906 33.2001 29.8482 33.2001 28.3692C33.2001 27.2817 32.7168 26.6002 31.8226 26.6002C30.7545 26.6002 29.3746 27.8617 28.043 30.2107C28.478 28.4176 28.6471 26.6751 27.3639 26.6751C27.0739 26.6751 26.8073 26.7476 26.564 26.8926C26.4816 26.9308 26.4125 26.9924 26.3651 27.0699C26.3178 27.1473 26.2945 27.237 26.2981 27.3276C26.419 29.2416 24.7466 34.1596 23.1734 34.1596C22.8834 34.1596 22.7384 33.8454 22.7384 33.3379C22.7384 31.9556 23.5601 29.0241 23.9709 27.666C24.0161 27.517 24.0405 27.3625 24.0434 27.2068C24.0434 26.8443 23.8259 26.651 23.2942 26.651C22.7384 26.651 22.1076 26.8685 21.5252 27.9076C21.3077 26.9893 20.7036 26.6026 19.8287 26.6026C18.4005 26.6026 16.8248 28.101 16.1216 30.0657C15.1791 32.683 13.3134 35.2253 10.7686 35.2253C8.46798 35.2253 7.25481 33.3113 7.25481 30.2832C7.25481 25.8994 10.4786 22.3372 12.8518 22.3372C13.9901 22.3372 14.5241 23.0622 14.5241 24.1787C14.5241 25.5345 13.775 26.1411 13.775 26.6727C13.775 26.8177 13.8958 26.9869 14.1616 26.9869C15.2008 26.9869 16.414 25.7786 16.414 24.1062C16.414 22.4339 15.1041 21.2473 12.731 21.2473C8.78215 21.2473 4.83331 25.1961 4.83331 30.2856C4.83331 34.3287 6.81981 36.7526 10.2611 36.7526C12.6101 36.7526 14.6691 34.9353 15.7591 32.8038C15.8799 34.5728 16.6798 35.4911 17.9147 35.4911C19.0046 35.4911 19.8771 34.8386 20.5561 33.7004C20.822 34.8846 21.4986 35.467 22.3976 35.467C23.4126 35.467 24.2875 34.8145 25.085 33.6279C25.085 34.5704 25.2783 35.467 26.1048 35.467C26.4915 35.467 26.9506 35.3703 27.0231 35.032C27.8956 31.4698 30.0295 28.5384 30.682 28.5384C30.8753 28.5384 30.9236 28.7317 30.9236 28.9492C30.9236 29.9207 30.247 31.9072 30.247 33.1663C30.247 34.5486 30.827 35.4428 32.0401 35.4428C33.3717 35.4428 34.7275 33.8212 35.6241 31.4215C35.9141 33.6521 36.5206 35.4428 37.4656 35.4428C38.628 35.4428 40.7353 32.973 41.9968 30.3557C42.4801 30.4282 43.2317 30.4041 43.9591 29.8966C43.645 30.6699 43.4758 31.5181 43.4758 32.3422C43.4758 34.7661 44.6358 35.4428 45.6291 35.4428C46.719 35.4428 47.5914 34.7903 48.2705 33.6521C48.488 34.6671 49.068 35.4186 50.112 35.4186C51.736 35.4186 53.1642 33.7487 53.1642 32.3664C53.1884 32.0764 53.0192 31.8347 52.8501 31.8347ZM18.9321 34.1354C18.2796 34.1354 18.0138 33.4829 18.0138 32.4872C18.0138 30.769 19.198 27.8859 20.4353 27.8859C20.967 27.8859 21.1845 28.5142 21.1845 29.3141C21.1845 31.059 20.0728 34.1354 18.9321 34.1354ZM41.5352 29C41.1486 28.5408 41.0036 27.8859 41.0036 27.3276C41.0036 26.6268 41.2694 26.0444 41.5594 26.0444C41.8494 26.0444 41.9702 26.3344 41.9702 26.7694C41.9461 27.4485 41.7044 28.4901 41.5352 29ZM46.6465 34.1354C45.994 34.1354 45.7281 33.3621 45.7281 32.4872C45.7281 30.8173 46.9123 27.8859 48.1496 27.8859C48.6813 27.8859 48.8747 28.5142 48.8747 29.3141C48.8988 31.059 47.8113 34.1354 46.6465 34.1354Z" fill="white"/>
</svg>
