<svg width="42" height="47" viewBox="0 0 42 47" fill="none" xmlns="http://www.w3.org/2000/svg">
<g clip-path="url(#clip0_42_12)">
<path d="M41.4657 35.25C41.7952 34.6823 42 34.0427 42 33.4684V13.5316C42 12.9572 41.7955 12.3178 41.4658 11.7501L21 23.5001L41.4657 35.25Z" fill="#A3A3A3"/>
<path d="M22.8186 46.5691L40.1814 36.6008C40.6815 36.3136 41.1361 35.8177 41.4657 35.2499L21 23.5L0.534332 35.2501C0.863881 35.8177 1.31861 36.3137 1.81863 36.6008L19.1814 46.5691C20.1815 47.1434 21.8184 47.1434 22.8186 46.5691Z" fill="#A3A3A3"/>
<path d="M41.4658 11.7499C41.1361 11.1821 40.6814 10.6863 40.1814 10.3991L22.8186 0.430759C21.8185 -0.143586 20.1816 -0.143586 19.1814 0.430759L1.81863 10.3991C0.818314 10.9733 0 12.383 0 13.5315V33.4683C0 34.0427 0.204647 34.6823 0.534333 35.2499L21 23.5L41.4658 11.7499Z" fill="#A3A3A3"/>
<path d="M21 37.4219C13.2804 37.4219 7 31.1766 7 23.5C7 15.8235 13.2804 9.57812 21 9.57812C25.9813 9.57812 30.6269 12.2438 33.1239 16.5347L27.065 20.0212C25.8153 17.8734 23.4912 16.5391 21 16.5391C17.1401 16.5391 14 19.6617 14 23.5C14 27.3382 17.1401 30.4609 21 30.4609C23.4915 30.4609 25.8156 29.1266 27.0654 26.9784L33.1243 30.4648C30.6273 34.7561 25.9815 37.4219 21 37.4219Z" fill="white"/>
<path d="M35 22.7265H33.4444V21.1797H31.889V22.7265H30.3333V24.2733H31.889V25.8203H33.4444V24.2733H35V22.7265Z" fill="white"/>
<path d="M40.8333 22.7265H39.2777V21.1797H37.7223V22.7265H36.1667V24.2733H37.7223V25.8203H39.2777V24.2733H40.8333V22.7265Z" fill="white"/>
</g>
<defs>
<clipPath id="clip0_42_12">
<rect width="42" height="47" fill="white"/>
</clipPath>
</defs>
</svg>
