<svg width="52" height="52" viewBox="0 0 52 52" fill="none" xmlns="http://www.w3.org/2000/svg">
<path d="M47.255 22.2083C47.125 22.1216 46.0417 21.2766 43.7017 21.2766C43.095 21.2766 42.4883 21.3416 41.8817 21.45C41.4267 18.4166 38.8917 16.8783 38.7833 16.8133L38.155 16.445L37.765 17.03C37.245 17.81 36.8333 18.6983 36.66 19.6083C36.2267 21.3416 36.4867 22.9883 37.375 24.3966C36.3133 25.0033 34.58 25.155 34.2117 25.155H5.67666C4.93999 25.155 4.33333 25.7616 4.33333 26.52C4.33333 29.0116 4.72333 31.5033 5.58999 33.8433C6.56499 36.4216 8.03833 38.3283 9.92333 39.4983C12.0467 40.7983 15.535 41.535 19.5 41.535C21.2117 41.535 22.9883 41.3833 24.7433 41.0583C27.17 40.625 29.51 39.78 31.655 38.545C33.4315 37.5291 35.0215 36.2175 36.3567 34.6666C38.6317 32.1316 39.975 29.25 40.95 26.7583H41.3617C43.8317 26.7583 45.37 25.7616 46.215 24.9166C46.7783 24.3966 47.19 23.7683 47.4933 23.0316L47.6667 22.5116L47.255 22.2083ZM8.34166 24.3533H12.155C12.3283 24.3533 12.5017 24.2016 12.5017 24.0066V20.5833C12.5017 20.41 12.35 20.2366 12.155 20.2366H8.34166C8.14666 20.2366 7.995 20.3883 7.995 20.5833V24.0066C8.01666 24.2016 8.14666 24.3533 8.34166 24.3533ZM13.6067 24.3533H17.42C17.5933 24.3533 17.7667 24.2016 17.7667 24.0066V20.5833C17.7667 20.41 17.615 20.2366 17.42 20.2366H13.6067C13.4117 20.2366 13.26 20.3883 13.26 20.5833V24.0066C13.2817 24.2016 13.4117 24.3533 13.6067 24.3533ZM18.9583 24.3533H22.75C22.9667 24.3533 23.1183 24.2016 23.1183 24.0066V20.5833C23.1183 20.41 22.9883 20.2366 22.75 20.2366H18.9583C18.785 20.2366 18.6333 20.3883 18.6333 20.5833V24.0066C18.6333 24.2016 18.7633 24.3533 18.9583 24.3533ZM24.245 24.3533H28.08C28.2533 24.3533 28.405 24.2016 28.405 24.0066V20.5833C28.405 20.41 28.275 20.2366 28.08 20.2366H24.245C24.0717 20.2366 23.92 20.3883 23.92 20.5833V24.0066C23.92 24.2016 24.0717 24.3533 24.245 24.3533ZM13.6067 19.5H17.42C17.5933 19.5 17.7667 19.305 17.7667 19.11V15.7083C17.7667 15.5133 17.615 15.3616 17.42 15.3616H13.6067C13.4117 15.3616 13.26 15.4916 13.26 15.7083V19.11C13.2817 19.305 13.4117 19.5 13.6067 19.5ZM18.9583 19.5H22.75C22.9667 19.5 23.1183 19.305 23.1183 19.11V15.7083C23.1183 15.5133 22.9883 15.3616 22.75 15.3616H18.9583C18.785 15.3616 18.6333 15.4916 18.6333 15.7083V19.11C18.6333 19.305 18.7633 19.5 18.9583 19.5ZM24.245 19.5H28.08C28.2533 19.5 28.405 19.305 28.405 19.11V15.7083C28.405 15.5133 28.2533 15.3616 28.08 15.3616H24.245C24.0717 15.3616 23.92 15.4916 23.92 15.7083V19.11C23.92 19.305 24.0717 19.5 24.245 19.5ZM24.245 14.56H28.08C28.2533 14.56 28.405 14.4083 28.405 14.2133V10.8333C28.405 10.6166 28.2533 10.465 28.08 10.465H24.245C24.0717 10.465 23.92 10.595 23.92 10.8333V14.2133C23.92 14.3866 24.0717 14.56 24.245 14.56ZM29.575 24.3533H33.3883C33.5833 24.3533 33.735 24.2016 33.735 24.0066V20.5833C33.735 20.41 33.5833 20.2366 33.3883 20.2366H29.575C29.4017 20.2366 29.25 20.3883 29.25 20.5833V24.0066C29.25 24.2016 29.4017 24.3533 29.575 24.3533Z" fill="white"/>
</svg>
