<svg width="40" height="45" viewBox="0 0 40 45" fill="none" xmlns="http://www.w3.org/2000/svg">
<path d="M32.0196 21.8483C35.0116 22.0546 37.4093 20.1136 38.0279 17.4372C36.9434 15.8932 34.6689 15.1599 32.6627 16.4392C30.859 17.7224 30.3669 19.9659 32.0196 21.8483ZM23.9193 0.943242L13.0904 6.95259L15.5945 8.27271L26.4141 2.28164L23.9193 0.943242ZM13.6444 17.4718L24.2237 41.7278L27.0481 43.4711L15.2192 9.04544L12.4016 7.52757L1.13802 28.8812L3.1934 30.0402L12.9028 17.3822C13.1152 17.1432 13.4705 17.1355 13.6444 17.4719M32.5378 23.2393C29.4612 21.5377 29.4612 17.2602 32.5378 15.5586C35.6144 13.8569 39.4811 15.9955 39.4811 19.399C39.4811 22.8024 35.6144 24.9411 32.5378 23.2393ZM36.0328 26.4396L39.9744 37.9858L27.938 45L23.5085 42.2376L15.5764 24.0676L3.30204 31.0155L0.0122375 29.1567L11.9154 6.66149L23.9024 0L27.6379 2.01595L31.4203 13.1273C24.111 17.1764 27.7844 27.4423 36.0328 26.4395" fill="white"/>
</svg>
