<svg width="36" height="36" viewBox="0 0 36 36" fill="none" xmlns="http://www.w3.org/2000/svg">
<path d="M22.6687 11.3344H22.7812L22.725 11.2782L26.6625 7.34066V7.25628C23.3437 4.33128 18.7594 3.31878 14.5125 4.5844C10.2656 5.85003 7.00312 9.22503 5.82187 13.5C5.87812 13.4719 5.96249 13.4438 6.04687 13.4438C7.50937 12.4875 9.25312 11.925 11.0812 11.925C11.7 11.925 12.2906 11.9813 12.8812 12.0938C12.9094 12.0657 12.9375 12.0657 12.9656 12.0657C15.4969 9.28128 19.7719 8.94378 22.6969 11.3344H22.6687Z" fill="white"/>
<path d="M30.4031 13.4438C29.7563 11.0531 28.4063 8.88752 26.5219 7.22815L22.5 11.2219C24.1875 12.6 25.1719 14.6813 25.1156 16.8469V17.55C29.8688 17.55 29.8688 24.6375 25.1156 24.6375H17.9719V30.2625H17.9438L17.9719 30.3188H25.1156C29.2219 30.3469 32.85 27.7031 34.0594 23.8219C35.2688 19.9406 33.7781 15.7219 30.4031 13.4438Z" fill="#525252"/>
<path d="M10.9687 30.3468H18.3656V24.6656H10.9687C10.4344 24.6656 9.92811 24.5531 9.44999 24.3562L5.17499 28.4625V28.5187C6.86249 29.7281 8.88749 30.375 10.9969 30.375L10.9687 30.3468Z" fill="#9F9F9F"/>
<path d="M11.3062 11.7844C7.11562 11.8125 3.40312 14.4 2.05312 18.1969C0.703119 22.0219 2.05312 26.2125 5.37187 28.6875L9.75937 24.4969C7.34062 23.4563 6.77812 20.4188 8.63437 18.6469C10.4906 16.8469 13.6406 17.4094 14.7375 19.7157L19.125 15.525C17.2687 13.1907 14.3719 11.8125 11.3062 11.8407V11.7844Z" fill="#797979"/>
</svg>
