<svg width="24" height="24" viewBox="0 0 24 24" fill="none" xmlns="http://www.w3.org/2000/svg">
<path d="M6.17501 10.333C4.96701 10.741 4.22001 11.304 4.22001 11.926C4.22001 12.774 5.60901 13.513 7.66001 13.897C6.89801 14.282 6.44301 14.771 6.44301 15.304C6.44301 16.547 8.93001 17.556 11.998 17.556C12.788 17.556 13.54 17.489 14.221 17.368M7.66101 13.897C8.61601 14.076 9.71601 14.177 10.887 14.177C12.595 14.177 14.152 13.961 15.332 13.605M16.442 10.125C15.031 10.541 13.063 10.8 10.887 10.8C6.59201 10.8 3.10901 9.79197 3.10901 8.54797C3.10901 7.58797 5.18601 6.76797 8.10901 6.44397" stroke="white" stroke-width="1.5" stroke-linecap="round" stroke-linejoin="round"/>
<path d="M22 19.07C22 20.688 17.523 22 12 22C6.477 22 2 20.688 2 19.07C2 17.92 3.707 16.924 7 16.444" stroke="white" stroke-width="1.5" stroke-linecap="round"/>
<path d="M18.76 8.788C22.974 7.694 23.576 14.256 17.555 16.444M17.558 2C16.818 2.123 15.425 2.815 15.78 4.593C16.136 6.37 15.632 7.309 15.336 7.556M13.113 2C12.372 2.148 10.979 2.978 11.335 5.111C11.691 7.244 11.187 7.815 10.891 8.111" stroke="white" stroke-width="1.5" stroke-linecap="round" stroke-linejoin="round"/>
</svg>
