<svg width="86" height="86" viewBox="0 0 86 86" fill="none" xmlns="http://www.w3.org/2000/svg">
<path d="M7.81883 3.29456e-06C5.78738 -0.000927916 3.83547 0.789542 2.37711 2.20375C0.918754 3.61796 0.0686691 5.54465 0.00716667 7.57517L0 7.81884V31.2718C0 33.3454 0.823768 35.3342 2.29008 36.8005C3.7564 38.2668 5.74515 39.0906 7.81883 39.0906C9.89252 39.0906 11.8813 38.2668 13.3476 36.8005C14.8139 35.3342 15.6377 33.3454 15.6377 31.2718V7.81884C15.6386 6.79179 15.437 5.77463 15.0444 4.82558C14.6518 3.87653 14.0759 3.01422 13.3497 2.28798C12.6235 1.56175 11.7611 0.985856 10.8121 0.593257C9.86304 0.200657 8.84588 -0.000939385 7.81883 3.29456e-06ZM31.2718 3.29456e-06C29.2403 -0.000927916 27.2884 0.789542 25.83 2.20375C24.3717 3.61796 23.5216 5.54465 23.4601 7.57517L23.4529 7.81884V54.7247C23.4529 56.7984 24.2767 58.7871 25.743 60.2534C27.2093 61.7197 29.1981 62.5435 31.2718 62.5435C33.3454 62.5435 35.3342 61.7197 36.8005 60.2534C38.2668 58.7871 39.0906 56.7984 39.0906 54.7247V7.82242C39.092 6.79507 38.8907 5.77753 38.4984 4.82807C38.106 3.8786 37.5302 3.01586 36.8039 2.28925C36.0776 1.56264 35.2151 0.986421 34.2658 0.593598C33.3165 0.200775 32.2991 -0.000940203 31.2718 3.29456e-06ZM54.7282 3.29456e-06C53.7012 -0.000939385 52.684 0.200657 51.735 0.593257C50.7859 0.985856 49.9236 1.56175 49.1974 2.28798C48.4712 3.01422 47.8953 3.87653 47.5027 4.82558C47.1101 5.77463 46.9085 6.79179 46.9094 7.81884C46.9085 8.84589 47.1101 9.86304 47.5027 10.8121C47.8953 11.7611 48.4712 12.6235 49.1974 13.3497C49.9236 14.0759 50.7859 14.6518 51.735 15.0444C52.684 15.437 53.7012 15.6386 54.7282 15.6377C55.7553 15.6386 56.7725 15.437 57.7215 15.0444C58.6706 14.6518 59.5329 14.0759 60.2591 13.3497C60.9853 12.6235 61.5612 11.7611 61.9538 10.8121C62.3464 9.86304 62.548 8.84589 62.5471 7.81884C62.548 6.79179 62.3464 5.77463 61.9538 4.82558C61.5612 3.87653 60.9853 3.01422 60.2591 2.28798C59.5329 1.56175 58.6706 0.985856 57.7215 0.593257C56.7725 0.200657 55.7553 -0.000939385 54.7282 3.29456e-06ZM78.1812 3.29456e-06C76.1497 -0.000927916 74.1978 0.789542 72.7394 2.20375C71.2811 3.61796 70.431 5.54465 70.3695 7.57517L70.3623 7.81884V78.1812C70.3623 80.2549 71.1861 82.2436 72.6524 83.7099C74.1187 85.1762 76.1075 86 78.1812 86C80.2549 86 82.2436 85.1762 83.7099 83.7099C85.1762 82.2436 86 80.2549 86 78.1812V7.81884C86.0009 6.79179 85.7993 5.77463 85.4067 4.82558C85.0141 3.87653 84.4383 3.01422 83.712 2.28798C82.9858 1.56175 82.1235 0.985856 81.1744 0.593257C80.2254 0.200657 79.2082 -0.000939385 78.1812 3.29456e-06ZM54.7282 23.4529C50.4892 23.4529 47.042 26.8213 46.913 31.0281L46.9094 31.2718V78.1812C46.9094 80.2549 47.7332 82.2436 49.1995 83.7099C50.6658 85.1762 52.6546 86 54.7282 86C56.8019 86 58.7907 85.1762 60.257 83.7099C61.7233 82.2436 62.5471 80.2549 62.5471 78.1812V31.2753C62.5485 30.248 62.3472 29.2304 61.9549 28.281C61.5625 27.3315 60.9867 26.4688 60.2604 25.7422C59.5341 25.0156 58.6716 24.4393 57.7223 24.0465C56.773 23.6537 55.7556 23.452 54.7282 23.4529ZM7.81883 46.9094C5.78738 46.9085 3.83547 47.699 2.37711 49.1132C0.918754 50.5274 0.0686691 52.4541 0.00716667 54.4846L0 54.7283V78.1812C0 80.2549 0.823768 82.2436 2.29008 83.7099C3.7564 85.1762 5.74515 86 7.81883 86C9.89252 86 11.8813 85.1762 13.3476 83.7099C14.8139 82.2436 15.6377 80.2549 15.6377 78.1812V54.7283C15.6386 53.7012 15.437 52.684 15.0444 51.735C14.6518 50.7859 14.0759 49.9236 13.3497 49.1974C12.6235 48.4712 11.7611 47.8953 10.8121 47.5027C9.86304 47.1101 8.84588 46.9085 7.81883 46.9094ZM31.2718 70.3623C30.2447 70.3614 29.2275 70.563 28.2785 70.9556C27.3294 71.3482 26.4671 71.9241 25.7409 72.6503C25.0147 73.3765 24.4388 74.2389 24.0462 75.1879C23.6536 76.137 23.452 77.1541 23.4529 78.1812C23.452 79.2082 23.6536 80.2254 24.0462 81.1744C24.4388 82.1235 25.0147 82.9858 25.7409 83.712C26.4671 84.4383 27.3294 85.0141 28.2785 85.4067C29.2275 85.7993 30.2447 86.0009 31.2718 86C32.2988 86.0009 33.316 85.7993 34.265 85.4067C35.2141 85.0141 36.0764 84.4383 36.8026 83.712C37.5288 82.9858 38.1047 82.1235 38.4973 81.1744C38.8899 80.2254 39.0915 79.2082 39.0906 78.1812C39.0915 77.1541 38.8899 76.137 38.4973 75.1879C38.1047 74.2389 37.5288 73.3765 36.8026 72.6503C36.0764 71.9241 35.2141 71.3482 34.265 70.9556C33.316 70.563 32.2988 70.3614 31.2718 70.3623Z" fill="white"/>
</svg>
