<svg width="42" height="42" viewBox="0 0 42 42" fill="none" xmlns="http://www.w3.org/2000/svg">
<g clip-path="url(#clip0_42_76)">
<path d="M21 42C32.598 42 42 32.598 42 21C42 9.40202 32.598 0 21 0C9.40202 0 0 9.40202 0 21C0 32.598 9.40202 42 21 42Z" fill="#6E6E6E"/>
<path d="M34.8853 36.7546L16.1329 12.6H12.6V29.3931H15.4265V16.1893L32.6662 38.4638C33.4431 37.9441 34.1844 37.3731 34.8853 36.7546Z" fill="url(#paint0_linear_42_76)"/>
<path d="M26.8334 12.6H29.6333V29.4H26.8334V12.6Z" fill="url(#paint1_linear_42_76)"/>
</g>
<defs>
<linearGradient id="paint0_linear_42_76" x1="25.4333" y1="27.1833" x2="33.7166" y2="37.4499" gradientUnits="userSpaceOnUse">
<stop stop-color="white"/>
<stop offset="1" stop-color="white" stop-opacity="0"/>
</linearGradient>
<linearGradient id="paint1_linear_42_76" x1="28.2333" y1="12.6" x2="28.1864" y2="24.9374" gradientUnits="userSpaceOnUse">
<stop stop-color="white"/>
<stop offset="1" stop-color="white" stop-opacity="0"/>
</linearGradient>
<clipPath id="clip0_42_76">
<rect width="42" height="42" fill="white"/>
</clipPath>
</defs>
</svg>
