<svg width="45" height="45" viewBox="0 0 45 45" fill="none" xmlns="http://www.w3.org/2000/svg">
<g clip-path="url(#clip0_42_68)">
<path d="M23.5399 0.290052C23.217 0.105032 22.8513 0.00769043 22.4791 0.00769043C22.1069 0.00769043 21.7412 0.105032 21.4182 0.290052L3.9034 10.4625C3.23719 10.8394 2.86278 11.5506 2.86278 12.3047V32.6911C2.86278 33.4445 3.27868 34.1561 3.9027 34.5333L21.4175 44.7054C21.7405 44.8905 22.1063 44.9879 22.4786 44.9879C22.8508 44.9879 23.2166 44.8905 23.5396 44.7054L41.0544 34.5329C41.7203 34.1561 42.0943 33.4445 42.0943 32.6908V12.3047C42.0943 11.5509 41.6784 10.8397 41.0544 10.4625L23.5399 0.290052Z" fill="url(#paint0_linear_42_68)"/>
<path d="M41.0966 10.4625L23.4988 0.28999C23.3261 0.201801 23.1448 0.131702 22.9577 0.0808105L3.23788 34.0305C3.40124 34.2308 3.5984 34.4009 3.82042 34.5332L21.4186 44.7053C21.9178 44.9982 22.5 45.0822 23.041 44.9145L41.5543 10.8393C41.4328 10.6801 41.2762 10.5512 41.0966 10.4625Z" fill="url(#paint1_linear_42_68)"/>
<path d="M41.097 34.5322C41.5962 34.2393 41.9706 33.737 42.1369 33.1927L22.8748 0.0379377C22.3755 -0.0457342 21.8345 -0.00389829 21.3771 0.289305L3.90375 10.4199L22.7496 44.9979C22.9992 44.9557 23.291 44.872 23.5406 44.7465L41.097 34.5322Z" fill="url(#paint2_linear_42_68)"/>
</g>
<defs>
<linearGradient id="paint0_linear_42_68" x1="29.6117" y1="7.86536" x2="13.6161" y2="40.2936" gradientUnits="userSpaceOnUse">
<stop stop-color="#484848"/>
<stop offset="0.33" stop-color="#585858"/>
<stop offset="0.637" stop-color="#7B7B7B"/>
<stop offset="0.934" stop-color="#989898"/>
<stop offset="1" stop-color="white"/>
</linearGradient>
<linearGradient id="paint1_linear_42_68" x1="19.8178" y1="24.8785" x2="64.4471" y2="-7.89326" gradientUnits="userSpaceOnUse">
<stop offset="0.138" stop-color="#979797"/>
<stop offset="0.402" stop-color="#A6A6A6"/>
<stop offset="0.713" stop-color="#BCBCBC"/>
<stop offset="0.908" stop-color="white"/>
</linearGradient>
<linearGradient id="paint2_linear_42_68" x1="2.22176" y1="22.491" x2="42.75" y2="22.491" gradientUnits="userSpaceOnUse">
<stop offset="0.092" stop-color="white"/>
<stop offset="0.287" stop-color="#B7B7B7"/>
<stop offset="0.598" stop-color="#777777"/>
<stop offset="0.862" stop-color="#323232"/>
</linearGradient>
<clipPath id="clip0_42_68">
<rect width="45" height="45" fill="white"/>
</clipPath>
</defs>
</svg>
