<svg width="47" height="47" viewBox="0 0 47 47" fill="none" xmlns="http://www.w3.org/2000/svg">
<path fill-rule="evenodd" clip-rule="evenodd" d="M45.0416 23.4999C45.0416 35.3968 35.3969 45.0416 23.5 45.0416C11.6031 45.0416 1.95831 35.3968 1.95831 23.4999C1.95831 11.603 11.6031 1.95825 23.5 1.95825C35.3969 1.95825 45.0416 11.603 45.0416 23.4999ZM38.2286 31.9717C39.0313 30.567 39.334 28.9316 39.0872 27.3327C38.8405 25.7338 38.0589 24.2657 36.8702 23.1683C35.6814 22.071 34.1557 21.409 32.5422 21.2907C30.9286 21.1724 29.3227 21.6046 27.9865 22.5168C27.2046 23.0532 26.5373 23.7398 26.0233 24.5366C25.5093 25.3335 25.1591 26.2246 24.9928 27.1581C24.8266 28.0916 24.8478 29.0489 25.0551 29.9741C25.2625 30.8994 25.6518 31.7741 26.2005 32.5474C26.3308 32.7095 26.4019 32.9113 26.4019 33.1193C26.4019 33.3272 26.3308 33.529 26.2005 33.6911C25.4331 34.608 24.5209 35.3932 23.5 36.0156C21.1796 37.3498 18.4443 37.7686 15.831 37.19C13.2177 36.6114 10.9149 35.0771 9.37452 32.8882C10.3177 34.1034 11.6275 34.9822 13.1095 35.3942C14.5916 35.8063 16.167 35.7296 17.6021 35.1756C19.0371 34.6217 20.2554 33.6199 21.0762 32.3189C21.897 31.0178 22.2765 29.4869 22.1585 27.9532C22.0871 27.0078 21.8284 26.0862 21.3974 25.2418C20.9664 24.3974 20.3717 23.6472 19.648 23.0349C18.9243 22.4225 18.086 21.9603 17.1819 21.675C16.2779 21.3897 15.3261 21.2871 14.382 21.3732C14.1791 21.4052 13.9715 21.3654 13.7948 21.2607C13.6182 21.1559 13.4837 20.9928 13.4146 20.7994C12.9939 19.66 12.7765 18.4556 12.7722 17.2411C12.7668 14.5186 13.7963 11.8959 15.6521 9.90404C17.508 7.91219 20.0515 6.70013 22.7676 6.51334C21.7277 6.61711 20.7232 6.94751 19.8247 7.4813C18.9263 8.01508 18.1558 8.73928 17.5673 9.60292C16.9789 10.4666 16.5869 11.4487 16.4189 12.4801C16.2509 13.5116 16.311 14.5673 16.595 15.573C16.8789 16.5788 17.3798 17.51 18.0624 18.3013C18.745 19.0926 19.5928 19.7247 20.546 20.1531C21.4992 20.5815 22.5347 20.7958 23.5796 20.7809C24.6246 20.766 25.6535 20.5223 26.5941 20.067C28.0999 19.3565 29.3036 18.1333 29.9899 16.6164C30.0702 16.4285 30.2102 16.2723 30.3883 16.1721C30.5664 16.0719 30.7726 16.0332 30.9749 16.0622C32.1242 16.2947 33.2246 16.7241 34.2277 17.3312C35.4518 18.0297 36.5262 18.9626 37.3897 20.0764C38.2533 21.1903 38.8889 22.4633 39.2604 23.8228C39.632 25.1823 39.7321 26.6017 39.555 27.9998C39.378 29.398 38.9273 30.7477 38.2286 31.9717Z" fill="white"/>
</svg>
