<svg width="57" height="61" viewBox="0 0 57 61" fill="none" xmlns="http://www.w3.org/2000/svg">
<g filter="url(#filter0_d_129_4)">
<path d="M48.8347 24.1965C49.4285 22.5625 49.5781 20.9285 49.4285 19.2968C49.2812 17.6652 48.6875 16.0312 47.9441 14.5468C46.6094 12.3215 44.6785 10.5402 42.4531 9.49997C40.0781 8.46209 37.5535 8.16522 35.0312 8.75897C33.8437 7.57147 32.5066 6.53122 31.0222 5.79022C29.5379 5.04922 27.7566 4.74997 26.125 4.74997C23.5763 4.73509 21.0862 5.51366 19 6.97772C16.9219 8.45972 15.4375 10.5402 14.6941 12.9152C12.9129 13.3593 11.4285 14.1027 9.94412 14.9933C8.60937 16.0312 7.56912 17.3683 6.6785 18.7031C5.34375 20.9308 4.89725 23.4531 5.19412 25.9777C5.49268 28.4949 6.52512 30.8687 8.16287 32.8035C7.60185 34.3719 7.39898 36.046 7.56912 37.7031C7.71875 39.3371 8.3125 40.9687 9.0535 42.4531C10.3906 44.6808 12.3191 46.4621 14.5469 47.5C16.9219 48.5402 19.4441 48.8371 21.9687 48.2433C23.1562 49.4308 24.491 50.4687 25.9754 51.2121C27.4597 51.9555 29.241 52.25 30.875 52.25C33.4234 52.2655 35.9135 51.4878 38 50.0246C40.0781 48.5402 41.5625 46.4621 42.3035 44.0871C43.9806 43.7685 45.5581 43.0563 46.9062 42.009C48.241 40.9687 49.4285 39.7812 50.1719 38.2968C51.5066 36.0715 51.9531 33.5468 51.6562 31.0246C51.3594 28.5 50.4687 26.1273 48.8347 24.1965ZM31.0222 49.1316C28.6472 49.1316 26.866 48.3882 25.2344 47.0535C25.2344 47.0535 25.3816 46.9038 25.5312 46.9038L35.0312 41.4128C35.2949 41.2938 35.506 41.0827 35.625 40.8191C35.7438 40.5904 35.7949 40.3325 35.7722 40.0757V26.7187L39.7812 29.0937V40.0781C39.8221 41.2533 39.6257 42.4247 39.2037 43.5224C38.7818 44.62 38.143 45.6214 37.3254 46.4666C36.5079 47.3119 35.5284 47.9837 34.4454 48.442C33.3624 48.9003 32.1982 49.1333 31.0222 49.1316ZM11.875 40.9687C10.8347 39.1875 10.3906 37.1093 10.8347 35.0312C10.8347 35.0312 10.9844 35.1808 11.1316 35.1808L20.6316 40.6718C20.8596 40.7928 21.1179 40.8448 21.375 40.8215C21.6719 40.8215 21.9687 40.8215 22.116 40.6718L33.6941 33.9933V38.5937L24.0469 44.2343C23.0467 44.8152 21.9417 45.1928 20.7952 45.3456C19.6488 45.4985 18.4834 45.4235 17.366 45.125C14.991 44.5312 13.0625 43.0468 11.875 40.9687ZM9.35037 20.3371C10.3985 18.5619 12.0228 17.1991 13.9531 16.4753V27.759C13.9531 28.0535 13.9531 28.3527 14.1004 28.5C14.2194 28.7636 14.4305 28.9747 14.6941 29.0937L26.2722 35.7746L22.2656 38.1496L12.7656 32.6562C11.7539 32.0845 10.8657 31.3179 10.1523 30.4006C9.43883 29.4834 8.91442 28.4337 8.60937 27.3125C8.01562 25.0871 8.16287 22.4152 9.35037 20.3371ZM42.1562 27.9062L30.5781 21.2277L34.5847 18.8527L44.0847 24.3437C45.5691 25.2343 46.7566 26.4218 47.5 27.9062C48.2434 29.3906 48.6875 31.0246 48.5379 32.8058C48.3956 34.4779 47.7775 36.0743 46.7566 37.4062C45.7187 38.7433 44.3816 39.7812 42.75 40.375V29.0937C42.75 28.7968 42.75 28.5 42.6004 28.3527C42.6004 28.3527 42.4531 28.0535 42.1562 27.9062ZM46.1629 21.9687C46.1629 21.9687 46.0156 21.8215 45.866 21.8215L36.366 16.3281C36.0691 16.1808 35.9219 16.1808 35.625 16.1808C35.3281 16.1808 35.0312 16.1808 34.8816 16.3281L23.3035 23.009V18.4062L32.9531 12.7656C34.4375 11.875 36.0691 11.5781 37.8504 11.5781C39.4844 11.5781 41.116 12.1718 42.6004 13.2121C43.9375 14.25 45.125 15.5871 45.7187 17.0715C46.3125 18.5558 46.4597 20.3371 46.1629 21.9687ZM21.2254 30.2812L17.2187 27.9062V16.7746C17.2187 15.1406 17.6629 13.3593 18.5535 12.0246C19.4441 10.5402 20.7812 9.49997 22.2656 8.75897C23.7784 7.99957 25.4929 7.73931 27.1629 8.01559C28.7969 8.16522 30.4285 8.90622 31.7656 9.94647C31.7656 9.94647 31.616 10.0937 31.4687 10.0937L21.9687 15.5871C21.7051 15.7061 21.494 15.9172 21.375 16.1808C21.2254 16.4777 21.2254 16.625 21.2254 16.9218V30.2812ZM23.3035 25.5312L28.5 22.5625L33.6941 25.5312V31.4687L28.5 34.4375L23.3035 31.4687V25.5312Z" fill="white"/>
</g>
<defs>
<filter id="filter0_d_129_4" x="-4" y="0" width="65" height="65" filterUnits="userSpaceOnUse" color-interpolation-filters="sRGB">
<feFlood flood-opacity="0" result="BackgroundImageFix"/>
<feColorMatrix in="SourceAlpha" type="matrix" values="0 0 0 0 0 0 0 0 0 0 0 0 0 0 0 0 0 0 127 0" result="hardAlpha"/>
<feOffset dy="4"/>
<feGaussianBlur stdDeviation="2"/>
<feComposite in2="hardAlpha" operator="out"/>
<feColorMatrix type="matrix" values="0 0 0 0 0 0 0 0 0 0 0 0 0 0 0 0 0 0 0.25 0"/>
<feBlend mode="normal" in2="BackgroundImageFix" result="effect1_dropShadow_129_4"/>
<feBlend mode="normal" in="SourceGraphic" in2="effect1_dropShadow_129_4" result="shape"/>
</filter>
</defs>
</svg>
