<svg width="44" height="44" viewBox="0 0 44 44" fill="none" xmlns="http://www.w3.org/2000/svg">
<g clip-path="url(#clip0_205_7)">
<mask id="mask0_205_7" style="mask-type:luminance" maskUnits="userSpaceOnUse" x="0" y="0" width="44" height="44">
<path d="M0 0H44V44H0V0Z" fill="white"/>
</mask>
<g mask="url(#mask0_205_7)">
<path d="M42.9532 6.43334e-06H1.045C0.907616 6.22191e-06 0.771578 0.0270966 0.644673 0.0797273C0.517769 0.132358 0.402487 0.209496 0.305426 0.306728C0.208365 0.403959 0.131429 0.519376 0.0790207 0.646373C0.0266124 0.773369 -0.000239416 0.909454 1.61116e-06 1.04684V42.955C-0.000239899 43.0925 0.0266724 43.2288 0.0791952 43.3559C0.131718 43.483 0.208818 43.5985 0.306073 43.6958C0.403329 43.793 0.518827 43.8701 0.645944 43.9226C0.77306 43.9752 0.909295 44.0021 1.04683 44.0018H42.955C43.0925 44.0021 43.2288 43.9752 43.3559 43.9226C43.483 43.8701 43.5985 43.793 43.6958 43.6958C43.793 43.5985 43.8701 43.483 43.9226 43.3559C43.9752 43.2288 44.0021 43.0925 44.0018 42.955V1.04501C44.0018 0.907466 43.9747 0.771278 43.9219 0.644253C43.8692 0.517229 43.7919 0.401866 43.6945 0.30478C43.597 0.207695 43.4814 0.130798 43.3542 0.0784975C43.227 0.0261974 43.0907 -0.000476165 42.9532 6.43334e-06ZM26.191 23.5143H20.9532V39.809H16.7622V23.5143H11.5243V19.9045H26.191V23.5143ZM27.3643 38.8777V34.5235C27.3643 34.5235 29.744 36.3165 32.5985 36.3165C35.453 36.3165 35.343 34.4502 35.343 34.1935C35.343 31.4857 27.2543 31.4857 27.2543 25.4833C27.2543 17.3213 39.0408 20.5425 39.0408 20.5425L38.8942 24.4218C38.8942 24.4218 36.9178 23.1037 34.6848 23.1037C32.4518 23.1037 31.647 24.167 31.647 25.3C31.647 28.2278 39.809 27.9363 39.809 33.8287C39.809 42.9037 27.3643 38.8795 27.3643 38.8795" fill="white"/>
</g>
</g>
<defs>
<clipPath id="clip0_205_7">
<rect width="44" height="44" fill="white"/>
</clipPath>
</defs>
</svg>
