<svg width="18" height="18" viewBox="0 0 18 18" fill="none" xmlns="http://www.w3.org/2000/svg">
<g filter="url(#filter0_d_184_5)">
<path d="M9 0C9.66304 0 10.2989 0.263392 10.7678 0.732233C11.2366 1.20107 11.5 1.83696 11.5 2.5C11.5 3.16304 11.2366 3.79893 10.7678 4.26777C10.2989 4.73661 9.66304 5 9 5C8.33696 5 7.70107 4.73661 7.23223 4.26777C6.76339 3.79893 6.5 3.16304 6.5 2.5C6.5 1.83696 6.76339 1.20107 7.23223 0.732233C7.70107 0.263392 8.33696 0 9 0ZM9 1.25C8.66848 1.25 8.35054 1.3817 8.11612 1.61612C7.8817 1.85054 7.75 2.16848 7.75 2.5C7.75 2.83152 7.8817 3.14946 8.11612 3.38388C8.35054 3.6183 8.66848 3.75 9 3.75C9.33152 3.75 9.64946 3.6183 9.88388 3.38388C10.1183 3.14946 10.25 2.83152 10.25 2.5C10.25 2.16848 10.1183 1.85054 9.88388 1.61612C9.64946 1.3817 9.33152 1.25 9 1.25ZM9 5.625C10.6687 5.625 14 6.45625 14 8.125V10H4V8.125C4 6.45625 7.33125 5.625 9 5.625ZM9 6.8125C7.14375 6.8125 5.1875 7.725 5.1875 8.125V8.8125H12.8125V8.125C12.8125 7.725 10.8562 6.8125 9 6.8125Z" fill="#15FF00"/>
<path d="M9 5.68457C9.82691 5.68457 11.0694 5.8912 12.1035 6.30469C12.6205 6.51142 13.0821 6.76846 13.4131 7.07422C13.7436 7.37956 13.9404 7.72982 13.9404 8.125V9.94043H4.05957V8.125C4.05957 7.72982 4.25643 7.37956 4.58691 7.07422C4.91789 6.76846 5.37946 6.51142 5.89648 6.30469C6.93062 5.8912 8.17309 5.68457 9 5.68457ZM9 6.75293C8.06298 6.75293 7.10239 6.98252 6.37598 7.2627C6.01299 7.4027 5.70642 7.55625 5.48926 7.70117C5.38092 7.7735 5.29215 7.84484 5.23047 7.91309C5.17052 7.97945 5.12793 8.05214 5.12793 8.125V8.87207H12.8721V8.125C12.8721 8.05214 12.8295 7.97945 12.7695 7.91309C12.7079 7.84484 12.6191 7.7735 12.5107 7.70117C12.2936 7.55625 11.987 7.4027 11.624 7.2627C10.8976 6.98252 9.93702 6.75293 9 6.75293ZM9 0.0595703C9.64713 0.0595703 10.268 0.316825 10.7256 0.774414C11.1832 1.232 11.4404 1.85287 11.4404 2.5C11.4404 3.14713 11.1832 3.768 10.7256 4.22559C10.268 4.68317 9.64713 4.94043 9 4.94043C8.35287 4.94043 7.732 4.68317 7.27441 4.22559C6.81683 3.768 6.55957 3.14713 6.55957 2.5C6.55957 1.85287 6.81683 1.232 7.27441 0.774414C7.732 0.316825 8.35287 0.0595703 9 0.0595703ZM9 1.19043C8.65257 1.19043 8.31892 1.32757 8.07324 1.57324C7.82757 1.81891 7.69043 2.15257 7.69043 2.5C7.69043 2.84743 7.82757 3.18109 8.07324 3.42676C8.31892 3.67243 8.65257 3.80957 9 3.80957C9.34743 3.80957 9.68108 3.67243 9.92676 3.42676C10.1724 3.18109 10.3096 2.84743 10.3096 2.5C10.3096 2.15257 10.1724 1.81891 9.92676 1.57324C9.68108 1.32757 9.34743 1.19043 9 1.19043Z" stroke="black" stroke-width="0.12"/>
</g>
<defs>
<filter id="filter0_d_184_5" x="0" y="0" width="18" height="18" filterUnits="userSpaceOnUse" color-interpolation-filters="sRGB">
<feFlood flood-opacity="0" result="BackgroundImageFix"/>
<feColorMatrix in="SourceAlpha" type="matrix" values="0 0 0 0 0 0 0 0 0 0 0 0 0 0 0 0 0 0 127 0" result="hardAlpha"/>
<feOffset dy="4"/>
<feGaussianBlur stdDeviation="2"/>
<feComposite in2="hardAlpha" operator="out"/>
<feColorMatrix type="matrix" values="0 0 0 0 0 0 0 0 0 0 0 0 0 0 0 0 0 0 0.25 0"/>
<feBlend mode="normal" in2="BackgroundImageFix" result="effect1_dropShadow_184_5"/>
<feBlend mode="normal" in="SourceGraphic" in2="effect1_dropShadow_184_5" result="shape"/>
</filter>
</defs>
</svg>
