<svg width="86" height="86" viewBox="0 0 86 86" fill="none" xmlns="http://www.w3.org/2000/svg">
<path d="M74.9633 18.275L60.3792 20.9266L62.7083 12.8641C63.1025 11.5025 62.8517 10.0691 61.9917 8.95829C61.1675 7.84746 59.8417 7.16663 58.4442 7.16663H58.0858L57.5842 7.23829L33.9342 11.8608C31.9275 12.255 30.4583 13.9391 30.3508 15.9816L30.0283 21.6433L11.0725 18.2391C10.747 18.1846 10.4127 18.2229 10.1079 18.3497C9.80315 18.4764 9.54031 18.6866 9.34952 18.9559C9.15873 19.2253 9.04773 19.5429 9.02925 19.8725C9.01076 20.202 9.08554 20.5301 9.24501 20.8191L41.8175 77.9375C42.4983 79.12 44.1825 79.12 44.8275 77.9375L76.755 20.8191C77.4717 19.5291 76.3608 17.9883 74.9275 18.275H74.9633ZM34.6508 15.4083L58.3008 10.7858H58.48C59.0533 10.7858 59.4833 11.3233 59.3042 11.8966L54.8967 27.2333C54.8967 27.2333 54.8608 27.52 54.8967 27.6633C54.8967 27.6991 54.9325 27.735 54.9683 27.7708C54.9683 27.8425 55.04 27.95 55.1117 28.0216C55.1117 28.0575 55.1833 28.0933 55.2192 28.1291C55.2908 28.165 55.3625 28.2366 55.4342 28.2725C55.47 28.2725 55.5417 28.2725 55.6133 28.3083C55.685 28.3083 55.7208 28.3441 55.7925 28.3441H55.9717L62.7442 27.0541H63.1025C63.1742 27.0541 63.21 27.0541 63.2817 27.09C63.3533 27.1258 63.425 27.1975 63.4967 27.2691L63.6042 27.3766C63.6758 27.4483 63.6758 27.5558 63.7117 27.6633C63.7117 27.6991 63.7475 27.7708 63.7475 27.8066C63.7475 27.95 63.7475 28.1291 63.6758 28.2725L44.3975 66.7216L44.0392 67.2591C43.9317 67.4383 43.7525 67.5458 43.6092 67.5816H42.9642C42.814 67.5142 42.6887 67.4014 42.6058 67.2591C42.6058 67.2591 42.57 67.1875 42.5342 67.1516C42.4625 67.0083 42.3908 66.8291 42.4625 66.6141L45.58 51.5641V51.1341C45.58 51.0983 45.5442 51.0625 45.5083 51.0266C45.474 50.9469 45.4254 50.874 45.365 50.8116C45.365 50.7758 45.2933 50.74 45.2575 50.7041C45.1858 50.6683 45.1142 50.5966 45.0425 50.5966C45.0067 50.5966 44.935 50.5966 44.8992 50.5608H44.7917C44.72 50.5608 44.6125 50.5608 44.5408 50.5966L40.4917 51.815H39.99C39.9183 51.815 39.8467 51.7433 39.775 51.7075C39.7392 51.7075 39.7033 51.6358 39.6675 51.6C39.5958 51.5283 39.56 51.4566 39.5242 51.385C39.5242 51.3491 39.4883 51.3133 39.4525 51.2775C39.4167 51.1341 39.3808 50.9908 39.4525 50.8475L41.4233 41.28C41.4592 41.0291 41.4233 40.7783 41.2442 40.5991C41.2442 40.5991 41.2442 40.5633 41.2083 40.5275C41.065 40.3483 40.85 40.2766 40.635 40.2408H40.3483L33.755 41.7458H33.5042C33.0383 41.7458 32.6442 41.3158 32.68 40.8141L34.1492 16.2683C34.1492 15.8741 34.4717 15.5516 34.8658 15.48L34.6508 15.4083Z" fill="white"/>
</svg>
